<?xml version="1.0" standalone="no"?>
<!DOCTYPE svg PUBLIC "-//W3C//DTD SVG 1.1//EN" "http://www.w3.org/Graphics/SVG/1.1/DTD/svg11.dtd" >
<svg xmlns="http://www.w3.org/2000/svg" xmlns:xlink="http://www.w3.org/1999/xlink" version="1.1">
<metadata>
Created by FontForge 20170731 at Tue Jun 21 05:43:16 2022
 By Aleksey,,,
</metadata>
<defs>
<font id="ClassicoBold" horiz-adv-x="1062" >
  <font-face 
    font-family="Classico"
    font-weight="700"
    font-stretch="normal"
    units-per-em="2048"
    panose-1="0 0 0 0 0 0 0 0 0 0"
    ascent="1638"
    descent="-410"
    x-height="1018"
    cap-height="1424"
    bbox="-127 -465 1815 1886.02"
    underline-thickness="102"
    underline-position="-307"
    unicode-range="U+000A-20AC"
  />
<missing-glyph horiz-adv-x="1079" 
d="M102 1434h875v-1434h-875v1434zM160 1393l379 -633l381 633h-760zM514 717l-369 614v-1231zM541 674l-379 -631h758zM565 717l371 -621v1239z" />
    <glyph glyph-name=".notdef" horiz-adv-x="1079" 
d="M102 1434h875v-1434h-875v1434zM160 1393l379 -633l381 633h-760zM514 717l-369 614v-1231zM541 674l-379 -631h758zM565 717l371 -621v1239z" />
    <glyph glyph-name=".null" horiz-adv-x="0" 
 />
    <glyph glyph-name=".null" horiz-adv-x="0" 
 />
    <glyph glyph-name="nonmarkingreturn" horiz-adv-x="682" 
 />
    <glyph glyph-name="LF" unicode="&#xa;" horiz-adv-x="0" 
 />
    <glyph glyph-name="controlCR" unicode="&#xd;" horiz-adv-x="0" 
 />
    <glyph glyph-name="space" unicode=" " horiz-adv-x="702" 
 />
    <glyph glyph-name="exclam" unicode="!" horiz-adv-x="544" 
d="M286 378h-27l-118 1054h262zM272 -10q-28 0 -48.5 20t-20.5 49t20.5 49.5t48.5 20.5t49 -20.5t21 -49.5q0 -28 -20.5 -48.5t-49.5 -20.5z" />
    <glyph glyph-name="quotedbl" unicode="&#x22;" horiz-adv-x="546" 
d="M171 1456q24 0 39 -22q20 -30 17 -61q0 -34 -14 -132l-30 -218h-24l-30 219q-9 60 -12 122q0 92 54 92zM414 1434q17 -27 15 -60q0 -71 -10 -135l-31 -216h-27l-30 216q-10 59 -13 126q0 91 57 91q26 0 39 -22z" />
    <glyph glyph-name="numbersign" unicode="#" horiz-adv-x="1261" 
d="M1129 921h-214l-56 -410h193v-85h-206l-61 -451h-89l61 451h-334l-61 -451h-89l61 451h-201v85h214l56 410h-193v85h206l60 451h90l-61 -451h333l61 451h89l-60 -451h201v-85zM436 511h334l56 410h-334z" />
    <glyph glyph-name="dollar" unicode="$" horiz-adv-x="1007" 
d="M863 460q0 -123 -92.5 -198.5t-243.5 -83.5v-178h-50v178q-184 5 -336 105l50 191q23 -23 59.5 -73.5t65 -89.5t72.5 -74t89 -42v455l-19 9q-122 55 -207.5 144t-85.5 202q0 112 87.5 178.5t224.5 70.5v202h50v-202q157 -8 297 -86l-43 -227q-19 16 -50.5 60t-59.5 87.5
t-67.5 86t-76.5 58.5v-395l47 -22q54 -24 101.5 -56.5t91.5 -76.5t70 -102t26 -121zM248 1035q0 -35 12.5 -60.5t40 -43t50 -27t65 -23t61.5 -21.5v382q-105 -2 -167 -64t-62 -143zM527 628v-435q112 7 184 74.5t72 161.5q0 39 -12.5 66t-40 45t-52 29t-69.5 26.5t-72 27.5z
" />
    <glyph glyph-name="percent" unicode="%" horiz-adv-x="1689" 
d="M709 850q-96 -98 -225 -92t-238 115q-112 112 -119 242t91 228q95 97 224 90.5t238 -115.5q111 -111 118.5 -241.5t-89.5 -226.5zM232 1324q-52 -52 -61.5 -98.5t19 -98t101.5 -124.5q269 -269 404 -134q52 52 61 92t-18 84t-102 119q-60 60 -110.5 100.5t-105.5 71
t-103 28t-85 -39.5zM1443 559q112 -112 119 -242t-91 -228q-95 -97 -224 -90.5t-238 115.5q-111 111 -118.5 242t89.5 227q96 97 224.5 91.5t238.5 -115.5zM1457 108q52 52 62 98.5t-18.5 98t-101.5 124.5q-269 269 -405 134q-51 -51 -60.5 -97.5t19 -97.5t101.5 -124
q57 -57 109.5 -96.5t106 -63.5t102 -18.5t85.5 42.5zM1157 1432h45l-692 -1432h-46z" />
    <glyph glyph-name="ampersand" unicode="&#x26;" horiz-adv-x="1638" 
d="M1546 -4l-68 -2l2 -2h-139q-10 0 -15 1q-9 3 -15 9l-265 256q-43 -60 -95 -109q-57 -54 -119 -90q-69 -41 -141 -61q-78 -22 -162 -22q-77 0 -143 23q-70 23 -126 70q-56 45 -90 114q-37 75 -35 156q0 75 29 145t78 125q51 57 117 100q68 44 145 68q-43 45 -73 83
q-31 38 -53 80q-22 41 -32 82q-10 43 -10 91q-1 64 25 125q24 56 70 97q45 40 106 64q67 24 137 23q60 0 114 -21q56 -22 99 -59q42 -36 69 -84q26 -47 26 -103h-6q-3 0 -9 4q-5 4 -7 13q-5 37 -20 66q-20 43 -53 76q-37 38 -89 62q-26 14 -48 19q-102 20 -197 -21l-7 -4
q-61 -31 -81 -97q-21 -65 -8.5 -131.5t55.5 -119.5q151 -173 613 -623q36 63 54 115q29 81 39 155q2 8 4 12q1 4 10 4h8q-4 -83 -34 -166q-27 -75 -64 -136zM940 164q46 45 91 108l-512 490q-76 -24 -143 -67q-65 -42 -114 -98q-48 -54 -75 -120t-27 -138q-2 -82 34 -152
q34 -63 90 -107q56 -43 119 -64q57 -18 125 -20q86 0 159 21q146 43 253 147z" />
    <glyph glyph-name="quotesingle" unicode="'" horiz-adv-x="346" 
d="M212 1433q18 -26 16 -60q0 -2 -4 -46q-2 -20 -11 -86l-30 -219h-24l-30 220q-12 94 -12 117q0 97 53 97q27 0 42 -23z" />
    <glyph glyph-name="quotesingle" unicode="&#x2018;" horiz-adv-x="346" 
d="M212 1433q18 -26 16 -60q0 -2 -4 -46q-2 -20 -11 -86l-30 -219h-24l-30 220q-12 94 -12 117q0 97 53 97q27 0 42 -23z" />
    <glyph glyph-name="parenleft" unicode="(" horiz-adv-x="606" 
d="M531 1520q-62 -82 -103 -184t-60.5 -225t-26 -235.5t-6.5 -265.5t6.5 -267t26 -238.5t60.5 -228t103 -185.5l-25 -17q-356 451 -356 924q0 489 356 940z" />
    <glyph glyph-name="parenright" unicode=")" horiz-adv-x="606" 
d="M99 1538q356 -451 356 -924q0 -489 -356 -940l-25 17q62 82 103 184.5t60.5 225t26 235.5t6.5 266t-6.5 267t-26 238t-60.5 227.5t-103 185.5z" />
    <glyph glyph-name="asterisk" unicode="*" horiz-adv-x="1024" 
d="M898 1133l-3 -179l-374 110l291 -310l-217 -49l-84 354l-110 -344l-189 57l289 293l-376 -83l3 179l373 -85l-241 261l118 98l134 -354l159 344l115 -106l-264 -244z" />
    <glyph glyph-name="plus" unicode="+" horiz-adv-x="1042" 
d="M552 745h380v-58h-380v-393h-62v393h-379v58h379v393h62v-393z" />
    <glyph glyph-name="comma" unicode="," horiz-adv-x="350" 
d="M188 131q73 -62 73 -157q0 -71 -44.5 -140t-126.5 -113l-10 14q102 69 102 161q-5 87 -72 143q-20 18 -20 43q0 26 18 44q17 17 39.5 18.5t40.5 -13.5z" />
    <glyph glyph-name="hyphen" unicode="-" horiz-adv-x="591" 
d="M507 513h-423v109h423v-109z" />
    <glyph glyph-name="period" unicode="." horiz-adv-x="323" 
d="M217 102q18 -18 18 -43t-18 -43l-13 -13q-18 -18 -42.5 -18t-42.5 18l-13 13q-18 18 -18 43t18 43l13 13q17 17 42 17q26 0 43 -17z" />
    <glyph glyph-name="slash" unicode="/" horiz-adv-x="792" 
d="M650 1547h69l-581 -1682h-68z" />
    <glyph glyph-name="zero" unicode="0" horiz-adv-x="1316" 
d="M660 1455q235 0 370.5 -196.5t135.5 -535.5q0 -223 -59 -390.5t-175 -262t-276 -94.5q-235 0 -370.5 196t-135.5 535q0 223 59 391t175 262.5t276 94.5zM665 -8q81 0 141.5 35.5t99 96.5t62.5 153.5t33.5 196t9.5 233.5q0 168 -17.5 295t-57 227.5t-110.5 153.5t-172 53
q-100 0 -170 -52t-108 -151t-54.5 -222t-16.5 -286q0 -168 18 -296t58.5 -229t112 -154.5t171.5 -53.5z" />
    <glyph glyph-name="one" unicode="1" horiz-adv-x="718" 
d="M477 1455h78v-1456h-173v1343q-24 -20 -112.5 -98t-148.5 -124v24q209 175 356 311z" />
    <glyph glyph-name="two" unicode="2" horiz-adv-x="1112" 
d="M358 74q88 0 169.5 14t136 31.5t127.5 38t135 29.5l14 -188h-819v8l12 66q144 150 233 251t166.5 202.5t117.5 184.5t63 171t25 188q4 168 -61.5 245t-175.5 77q-53 0 -92 -13.5t-72.5 -47.5t-58.5 -71.5t-62 -106.5l-17 12q80 158 176.5 243t220.5 85q66 0 132.5 -25
t119.5 -68.5t86.5 -109t33.5 -139.5q0 -54 -14.5 -110t-35 -104.5t-63 -111.5t-78 -110t-102.5 -122t-113.5 -124.5t-133.5 -141.5t-142 -152l-91 -102z" />
    <glyph glyph-name="three" unicode="3" horiz-adv-x="1173" 
d="M605 741q58 -11 114 -31t113 -53t99.5 -74t69 -99t26.5 -125q0 -100 -45 -176t-123.5 -120.5t-174.5 -66t-207 -21.5q-186 3 -350 95l28 186q29 -27 81 -83t85 -89t82.5 -61t96.5 -28q154 0 246 114.5t66 306.5q-11 81 -65 150t-124 106.5t-138 42.5l-3 41
q131 6 210 89.5t85 247.5q4 123 -75.5 208t-191.5 85q-82 1 -157.5 -31t-132.5 -92h-41q145 192 371 192q95 0 191 -44t162.5 -124.5t66.5 -173.5q0 -66 -35 -126.5t-94.5 -106.5t-116 -77.5t-119.5 -57.5v-4z" />
    <glyph glyph-name="four" unicode="4" horiz-adv-x="1226" 
d="M1068 503l30 -153h-188v-351h-173v351h-611l-7 60l709 1037h82v-944h158zM214 503h524l10 768z" />
    <glyph glyph-name="five" unicode="5" horiz-adv-x="1171" 
d="M326 924q135 0 236 -10.5t192.5 -39t148.5 -76t90.5 -124t33.5 -181.5q0 -101 -32.5 -186t-86.5 -143t-125.5 -98.5t-149 -59.5t-157.5 -19q-179 2 -339 89l41 198q28 -27 73.5 -80t76 -86.5t75.5 -61.5t89 -28q151 0 221 107t70 291q0 476 -471 476h-75l-6 551h712
l24 -157h-704l12 -362h51z" />
    <glyph glyph-name="six" unicode="6" horiz-adv-x="1220" 
d="M631 853q116 0 219 -52.5t168.5 -151.5t65.5 -223q0 -130 -71.5 -235t-182.5 -160.5t-234 -55.5q-200 0 -325.5 152t-125.5 421q0 129 27.5 248t89 229t152 196t224 147.5t297.5 86.5v-42q-112 -10 -201.5 -47.5t-150.5 -93.5t-105 -134.5t-68.5 -163.5t-37.5 -186
q122 67 259 65zM611 3q286 0 276 481q-2 86 -29.5 154t-70.5 108.5t-94 61t-103 18.5q-123 -6 -222 -71q-10 -100 -10 -211t5.5 -188t21 -148t43 -113.5t73.5 -67t110 -24.5z" />
    <glyph glyph-name="seven" unicode="7" horiz-adv-x="1079" 
d="M106 1431h856v-8l-434 -1424h-160l510 1272l-209 3q-321 0 -524 -47z" />
    <glyph glyph-name="eight" unicode="8" horiz-adv-x="1226" 
d="M736 751q176 -73 260 -162t84 -220q0 -162 -142 -277.5t-341 -115.5q-113 0 -215.5 40.5t-170.5 121.5t-68 184q0 262 395 401q-326 162 -326 376q0 145 116.5 250.5t295.5 105.5q160 0 278.5 -92t118.5 -223q0 -72 -24 -135.5t-65.5 -111t-90.5 -82.5t-107 -60h2z
M397 1177q0 -52 4 -92t17.5 -84t36 -78t61.5 -65.5t93 -53.5l104 -44q135 77 132 383v9q0 45 -13.5 91t-39.5 88t-73.5 69t-107.5 27q-63 0 -108 -24.5t-66.5 -65.5t-30.5 -79.5t-9 -80.5zM622 3q139 0 205.5 70.5t66.5 213.5q0 65 -5.5 110t-19.5 87t-40.5 73t-67.5 58.5
t-101 52.5l-99 41q-68 -30 -111 -63.5t-65.5 -76t-31.5 -84t-11 -103.5q-4 -109 12 -183.5t53.5 -117t89 -60.5t125.5 -18z" />
    <glyph glyph-name="nine" unicode="9" horiz-adv-x="1220" 
d="M623 1449q200 0 325.5 -152t125.5 -421q0 -129 -27.5 -248t-89 -228.5t-152 -195.5t-224 -147.5t-297.5 -86.5v42q112 10 201.5 47.5t150.5 93.5t105 134.5t68.5 163t37.5 185.5q-122 -67 -259 -65q-116 0 -219 52.5t-168.5 151.5t-65.5 223q0 130 71.5 235t182.5 160.5
t234 55.5zM332 940q2 -86 29.5 -154t70.5 -108t94 -60.5t103 -18.5q123 6 222 71q10 100 10 210t-5.5 187.5t-21.5 148.5t-43.5 113.5t-73.5 67t-110 24.5q-144 0 -212 -119.5t-63 -361.5z" />
    <glyph glyph-name="colon" unicode=":" horiz-adv-x="360" 
d="M180 821q-30 0 -52 22t-22 52t22 51.5t52 21.5t51.5 -21.5t21.5 -51.5t-21.5 -52t-51.5 -22zM181 -14q-30 0 -51.5 21.5t-21.5 51.5t21.5 51.5t51.5 21.5t51.5 -21.5t21.5 -51.5t-21.5 -51.5t-51.5 -21.5z" />
    <glyph glyph-name="semicolon" unicode=";" horiz-adv-x="382" 
d="M204 131q73 -62 73 -157q0 -71 -44.5 -140t-126.5 -113l-10 14q103 70 103 161q-5 84 -72 142q-16 15 -19 37.5t9 41.5q14 21 41 26q26 5 46 -12zM184 750q-30 0 -51.5 21.5t-21.5 51.5t21.5 51.5t51.5 21.5t51.5 -21.5t21.5 -51.5t-21.5 -51.5t-51.5 -21.5z" />
    <glyph glyph-name="less" unicode="&#x3c;" horiz-adv-x="1052" 
d="M937 1066l-737 -350l737 -350l-28 -52l-796 378v48l796 378z" />
    <glyph glyph-name="equal" unicode="=" horiz-adv-x="995" 
d="M899 505h-803v89h803v-89zM899 838h-803v89h803v-89z" />
    <glyph glyph-name="greater" unicode="&#x3e;" horiz-adv-x="1052" 
d="M143 1118l796 -378v-48l-796 -378l-28 52l736 350l-736 350z" />
    <glyph glyph-name="question" unicode="?" horiz-adv-x="960" 
d="M439 1455q161 0 277.5 -84.5t116.5 -223.5q0 -60 -26 -119.5t-67.5 -108t-91.5 -95t-100.5 -89t-92 -81.5t-68 -80t-27.5 -78h-62q0 2 -0.5 5.5t-0.5 5.5q0 55 30 113t72.5 111.5t85 110.5t72.5 133.5t30 158.5q0 260 -188 281q-50 6 -95.5 -12.5t-74.5 -48t-50.5 -60.5
t-30.5 -53l-10 -22l-23 16q0 1 17 32t38.5 58t57 59t90.5 51.5t121 19.5zM340 -10q-28 0 -48.5 20t-20.5 49t20.5 49.5t48.5 20.5t49 -20.5t21 -49.5q0 -28 -20.5 -48.5t-49.5 -20.5z" />
    <glyph glyph-name="at" unicode="@" horiz-adv-x="1902" 
d="M1346 1049h33l-102 -487q-13 -58 -15 -120q0 -64 25.5 -92.5t83.5 -28.5q122 0 211.5 135t89.5 319q0 134 -51.5 252.5t-140 202.5t-213 133t-265.5 49q-157 0 -298.5 -62.5t-242.5 -168.5t-160.5 -253.5t-59.5 -312.5q0 -163 56 -304t154 -240.5t236 -156.5t297 -57
q265 -3 476 153l10 7l35 -43l-10 -8q-112 -82 -245.5 -124.5t-273.5 -40.5q-237 0 -427 103.5t-297 287.5t-107 414q-2 173 63.5 332t187.5 280q123 122 282 187t331 63q211 0 383 -90t269.5 -248.5t97.5 -352.5q0 -220 -117 -367t-292 -147q-169 0 -194 130
q-63 -72 -140.5 -111t-157.5 -39q-49 0 -92.5 16.5t-81.5 50t-60 94t-22 139.5q0 137 62.5 255.5t168.5 188.5t228 70q128 5 220 -83zM899 311q68 0 136 44.5t116 120.5q4 41 16 95l68 331q-30 47 -79.5 73.5t-104.5 25.5q-60 0 -119 -32.5t-106 -89t-76 -141.5t-29 -181
q0 -116 47 -181t131 -65z" />
    <glyph glyph-name="A" unicode="A" horiz-adv-x="1331" 
d="M730 1446l562 -1449h-231l-182 474h-613q-28 -74 -34.5 -92t-15 -39t-15.5 -37t-40 -97.5t-84 -208.5h-42q81 194 245 620l321 829h129zM270 488h602l-301 776l-254 -658z" />
    <glyph glyph-name="B" unicode="B" horiz-adv-x="1304" 
d="M817 745q165 -12 278.5 -111t113.5 -248q0 -181 -154 -285t-434 -104h-457v1425h477q237 0 355.5 -91.5t118.5 -250.5q0 -127 -88.5 -214.5t-209.5 -116.5v-4zM332 1409v-662h327q79 0 131 22t78.5 67t36.5 96.5t10 125.5q0 60 -5 105t-23 94t-48.5 80t-85.5 51.5
t-130 20.5h-291zM1005 352q0 67 -8.5 119.5t-29.5 99t-55 77.5t-88 49t-126 18h-367v-687q138 -15 269 -14q101 0 173.5 15.5t117 42.5t70.5 71.5t35 93t9 115.5z" />
    <glyph glyph-name="C" unicode="C" horiz-adv-x="1427" 
d="M1353 239l11 -10q-11 -13 -35 -37q-139 -139 -326 -188.5t-373.5 0.5t-325.5 189t-188.5 326t0 373.5t188.5 325.5t325.5 188.5t373.5 0t326 -188.5q8 -8 24 -26l-133 -126q-4 4 -11.5 12t-11.5 12q-140 140 -297 208.5t-312.5 48t-273.5 -138.5q-117 -117 -135.5 -278
t52.5 -323t211 -302t296 -204.5t309.5 -40.5t271.5 142q24 24 34 37z" />
    <glyph glyph-name="D" unicode="D" horiz-adv-x="1531" 
d="M718 1422q331 0 521.5 -182t190.5 -513q0 -228 -90 -393.5t-253 -251t-381 -85.5h-542v1425h554zM711 24q138 0 235 45.5t155 136.5t84 215.5t26 293.5q0 155 -29 278.5t-89.5 216.5t-160.5 143.5t-234 50.5h-349l-5 -1376q43 -4 367 -4z" />
    <glyph glyph-name="E" unicode="E" horiz-adv-x="1073" 
d="M980 161l41 -161h-857v1425h828l-39 -142h-4q-83 11 -239.5 59t-250.5 48h-133v-630h385v-36h-385v-689h133q93 0 262 57t255 69h4z" />
    <glyph glyph-name="F" unicode="F" horiz-adv-x="983" 
d="M329 1390v-654h365v-35h-365v-701h-165v1425h791l-24 -135h-4q-79 11 -244 55.5t-260 44.5h-94z" />
    <glyph glyph-name="G" unicode="G" horiz-adv-x="1486" 
d="M1261 649l102 9v-658h-101v129q-151 -117 -336.5 -145t-361.5 37.5t-300 211.5t-159.5 330.5t22.5 363t199 307.5q141 130 323.5 173t363.5 -7.5t316 -185.5q8 -8 24 -26l-127 -123q-4 4 -11.5 12t-11.5 12q-140 140 -298.5 207.5t-315.5 46.5t-275 -139
q-117 -117 -135.5 -275.5t51.5 -317.5t211 -300q130 -130 271 -197.5t285 -61t264 96.5v500z" />
    <glyph glyph-name="H" unicode="H" horiz-adv-x="1396" 
d="M1065 1422h168v-1425h-168v724h-733v-724h-168v1425h168v-666h733v666z" />
    <glyph glyph-name="I" unicode="I" horiz-adv-x="495" 
d="M332 -3l-168 2v1425l168 -2v-1425z" />
    <glyph glyph-name="J" unicode="J" horiz-adv-x="483" 
d="M163 1422h162v-979q0 -238 -44 -387t-130.5 -232.5t-236.5 -135.5v79q28 8 76 19q86 21 112 39q41 29 52 115q10 73 9 374v114v994z" />
    <glyph glyph-name="K" unicode="K" horiz-adv-x="1353" 
d="M332 -3h-168v1425h168v-1425zM353 728l147 102l-252 -242l-25 23l865 812l32 -1v-4q-90 -82 -252 -239t-230 -220l-138 -129l831 -830h-285z" />
    <glyph glyph-name="L" unicode="L" horiz-adv-x="1003" 
d="M931 157h3l41 -160h-811v1425h159v-1415h47q49 0 144.5 30.5t214 68.5t202.5 51z" />
    <glyph glyph-name="M" unicode="M" horiz-adv-x="1683" 
d="M1511 1424l11 -1425l-184 -2v1323l-543 -1233h-8l-591 1239l-21 -1326h-22l24 1363l-25 53v6h202l518 -1099l483 1099z" />
    <glyph glyph-name="N" unicode="N" horiz-adv-x="1290" 
d="M1098 1433h26v-1460h-12l-914 1317v-1290h-21v1324l-64 92v6h215l770 -1108v1119z" />
    <glyph glyph-name="O" unicode="O" horiz-adv-x="1634" 
d="M1542 717q0 -144 -55.5 -277.5t-157.5 -235.5q-139 -139 -325.5 -188.5t-373.5 0t-326 188.5t-188.5 326t0 373.5t188.5 325.5t325.5 188.5t373.5 0t326 -188.5q102 -102 157.5 -235t55.5 -277zM1171 1087q-105 105 -217.5 171.5t-224 89.5t-219 -8.5t-196.5 -120.5
q-88 -88 -117 -204.5t-2 -237t97 -241t175 -225.5q140 -140 289.5 -203t296.5 -38t266 144q88 88 118 198.5t3.5 225t-95 229t-174.5 220.5z" />
    <glyph glyph-name="P" unicode="P" horiz-adv-x="1208" 
d="M588 1423q272 0 412.5 -98.5t140.5 -287.5q0 -199 -148 -314t-403 -115q-218 0 -258 3v-613h-168v1425h424zM332 629l249 -3q107 0 181 29t115.5 85t59 126.5t17.5 164.5q0 72 -9 126t-33 103t-64.5 80t-105.5 49t-154 18h-256v-778z" />
    <glyph glyph-name="Q" unicode="Q" horiz-adv-x="1667" 
d="M1373 257l209 -257h-148l-118 195q-139 -133 -322 -179.5t-366 2.5t-320 184t-189 316.5t-8.5 365.5t174.5 325t311 198.5t365 19.5t330 -165t207 -305.5t30 -364.5t-155 -335zM1089 608l275 -339q68 90 86 199t-12 219t-96 219t-164 207q-140 140 -293.5 205.5
t-305 42.5t-269.5 -141q-88 -88 -116.5 -201t-1 -230.5t97 -234.5t175.5 -223q140 -140 286.5 -207t293 -48.5t264.5 132.5l-241 400h21z" />
    <glyph glyph-name="R" unicode="R" horiz-adv-x="1241" 
d="M660 645l523 -645h-154l-386 641q2 1 0 1v-1l-74 -4h-237v-640h-168v1425h377q267 0 411 -92t140 -274q-2 -70 -24.5 -130t-60.5 -102t-82 -74.5t-94.5 -53.5t-91 -32.5t-79.5 -18.5zM907 1057q0 84 -16.5 145t-56.5 109.5t-113 73t-180 24.5h-209v-727q132 -14 254 -14
q87 0 151 31.5t100 87t53 123t17 147.5z" />
    <glyph glyph-name="S" unicode="S" horiz-adv-x="1067" 
d="M617 770q71 -35 113 -57.5t95 -61t81.5 -76t48.5 -92.5t20 -120q0 -93 -37.5 -168.5t-101 -123t-143.5 -73t-168 -25.5q-229 6 -437 110l89 191q26 -25 75 -84t85.5 -100.5t90 -76t104.5 -34.5q148 0 250.5 95.5t102.5 231.5q0 42 -10 76.5t-30.5 61t-42.5 46.5t-57 38.5
t-61 30.5t-67.5 30t-65.5 29l-98 47q-67 32 -124.5 73.5t-107.5 95.5t-79 123.5t-29 145.5q0 150 116 246.5t300 96.5q209 -3 389 -110l-109 -208q-27 25 -62.5 83t-62.5 105t-72.5 85t-97.5 38q-138 0 -222 -86t-84 -201q0 -52 17.5 -96t42.5 -75t71 -63t82.5 -52t97.5 -49
z" />
    <glyph glyph-name="T" unicode="T" horiz-adv-x="1216" 
d="M1191 1422l-46 -156h-4q-65 11 -136.5 48.5t-132.5 68t-110 30.5h-59v-1416h-168v1413h-59q-49 0 -109.5 -32t-132 -71t-136.5 -50h-4l-71 165h1168z" />
    <glyph glyph-name="U" unicode="U" horiz-adv-x="1259" 
d="M1081 1426h28v-955q0 -242 -121 -370t-359 -128q-154 0 -264 69t-164 189t-54 279v912h168v-902q0 -116 16 -202t54 -154.5t107 -104t169 -35.5q197 0 308.5 115t111.5 329v958z" />
    <glyph glyph-name="V" unicode="V" horiz-adv-x="1126" 
d="M1057 1423h28l-480 -1450h-8l-562 1449h187l448 -1195z" />
    <glyph glyph-name="W" unicode="W" horiz-adv-x="1859" 
d="M1775 1422h40l-449 -1449h-7l-412 1244l-417 -1244h-7l-482 1449h202l367 -1155l375 1155h101l365 -1095z" />
    <glyph glyph-name="X" unicode="X" horiz-adv-x="1372" 
d="M739 777l606 -777h-255l-476 632l-404 -632h-28l419 648l-576 774h238l463 -630l424 631h21z" />
    <glyph glyph-name="Y" unicode="Y" horiz-adv-x="1169" 
d="M1119 1422h27q-214 -361 -341 -581l-119 -206v-638l-164 3v634l-502 788h219l438 -767l106 182z" />
    <glyph glyph-name="Z" unicode="Z" horiz-adv-x="1175" 
d="M1065 179l30 -182h-1044v8l856 1408h-50q-97 0 -212.5 -25.5t-202 -57.5t-178.5 -64t-137 -40h-4l-9 196h1005v-8l-855 -1407h186q96 0 190 23.5t156.5 52.5t136.5 58t128 38h4z" />
    <glyph glyph-name="bracketleft" unicode="[" horiz-adv-x="434" 
d="M561 1547v-42h-306q19 -231 15 -690q-1 -70 -1 -209t1 -209q4 -460 -15 -691h306v-42h-397v1883h397z" />
    <glyph glyph-name="backslash" unicode="\" horiz-adv-x="792" 
d="M143 1541l578 -1676h-69l-2 6l-578 1676h68z" />
    <glyph glyph-name="bracketright" unicode="]" horiz-adv-x="434" 
d="M-127 1547h397v-1883h-397v42h306q-19 231 -15 691q1 70 1 209t-1 209q-4 459 15 690h-306v42z" />
    <glyph glyph-name="asciicircum" unicode="^" horiz-adv-x="905" 
d="M465 1460l335 -603h-67l-281 505l-280 -505h-68l339 608h19z" />
    <glyph glyph-name="underscore" unicode="_" horiz-adv-x="1075" 
d="M911 -169h-747v93h747v-93z" />
    <glyph glyph-name="grave" unicode="`" horiz-adv-x="405" 
d="M125 1518l186 -316l-14 -10l-297 326h125z" />
    <glyph glyph-name="a" unicode="a" 
d="M601 1044q160 0 240.5 -89t80.5 -275v-680h-173l-5 135q-163 -149 -384 -154q-120 0 -195 61.5t-75 169.5q0 139 123.5 231.5t326.5 116.5q79 9 204 17v93q0 338 -266 338q-49 0 -95 -35.5t-102 -100.5t-87 -91l-56 116q76 69 211 108t252 39zM744 173v356
q-87 3 -162 -1.5t-146 -20.5t-119.5 -43.5t-76 -73t-23.5 -106.5q8 -111 70 -166.5t161 -55.5q91 0 160 23t136 88z" />
    <glyph glyph-name="b" unicode="b" horiz-adv-x="1220" 
d="M679 1050q191 0 316 -147t125 -375q0 -122 -39.5 -226t-106 -174.5t-155 -110.5t-185.5 -40t-185 40t-153 113l-88 -140h-61v1547l164 25h8v-701q182 189 360 189zM632 9q155 0 233 134t78 372q0 232 -71 360t-218 128q-82 0 -172 -53.5t-163 -137.5v-608
q44 -89 128.5 -142t184.5 -53z" />
    <glyph glyph-name="c" unicode="c" horiz-adv-x="1116" 
d="M1016 206l26 -23l-7 -9q-8 -9 -26 -27q-75 -76 -173.5 -116.5t-205.5 -40.5q-109 0 -208.5 42.5t-171 114t-114 171t-42.5 208.5t42.5 208.5t114 171t171 114t208.5 42.5q107 0 205.5 -40.5t173.5 -116.5q3 -3 9 -9.5t9 -9.5l8 -9l-130 -153q-68 124 -106 170
q-85 104 -196 114q-200 18 -306 -88q-62 -63 -91 -146.5t-20 -171.5q23 -198 164.5 -339.5t339.5 -164.5q108 -9 173.5 4t121.5 69q21 20 24 25z" />
    <glyph glyph-name="d" unicode="d" horiz-adv-x="1228" 
d="M1073 1568h8v-1389l-3 -179h-147l-28 146q-76 -81 -169 -125t-193 -44q-191 0 -316 147.5t-125 375.5q0 122 39.5 226t106 174.5t155 110t185.5 39.5q185 0 315 -127v625zM901 191v632q-44 90 -129 143t-184 53q-157 0 -238.5 -132t-81.5 -367q0 -231 75.5 -363.5
t222.5 -132.5q87 0 177 44.5t158 122.5z" />
    <glyph glyph-name="e" unicode="e" horiz-adv-x="1114" 
d="M1006 199h36q-89 -118 -226.5 -172.5t-282.5 -29.5q-146 25 -257.5 121.5t-156.5 237.5t-10 285t139 248q166 166 345 163h8q2 0 4.5 -0.5t3.5 -0.5q3 0 7 -0.5t7 -0.5h1q153 -14 245 -121t102 -288q0 -5 0.5 -15.5t0.5 -16.5h-817q-4 -96 40.5 -182.5t135.5 -177.5
q103 -99 219.5 -147.5t229.5 -34.5t195 96q14 14 31 36zM268 870q-94 -94 -110 -229h639q0 2 -0.5 6.5t-0.5 6.5v2q0 1 -3 37q0 1 -0.5 3.5t-0.5 3.5q-8 62 -25.5 111.5t-39.5 78.5t-46.5 49.5t-48 28.5t-42.5 12t-30 4l-12 -1q-164 3 -280 -113z" />
    <glyph glyph-name="f" unicode="f" horiz-adv-x="784" 
d="M635 1548q-251 0 -251 -333v-188h363l-32 -91l-329 45l-2 -980l-167 -4l2 981l-160 -16l-12 61h170v204q0 180 79.5 272t228.5 92q81 0 182.5 -16.5t162.5 -48.5l-30 -139q-42 17 -82 58t-69.5 72t-53.5 31z" />
    <glyph glyph-name="g" unicode="g" horiz-adv-x="1077" 
d="M1015 1193v-179l-250 -49q86 -61 128.5 -156.5t29.5 -198.5q-13 -104 -76.5 -187t-160.5 -121t-200.5 -22t-183.5 83l-15 -10q-70 -42 -82 -120q-1 -26 5 -45.5t24 -41t59.5 -34.5t104.5 -15l258 -13q59 -4 94 -7t77.5 -10.5t65.5 -19.5t45 -31t31 -47.5t9 -67.5
q0 -145 -142 -251t-355 -106q-187 0 -301 82.5t-114 213.5q2 83 39 155l167 88q-188 22 -188 116q0 11 3.5 22t12 22t16 20t23 20.5t24.5 18.5t28.5 19t28 17.5t30 18t27.5 15.5l9 6q-4 3 -11 10q-103 103 -111 248.5t83 258.5t235.5 136.5t266.5 -55.5zM649 57l-282 18
q-12 1 -36 2.5t-36 2.5q-33 -41 -51.5 -112t-18.5 -117q0 -66 10.5 -115t37.5 -90.5t79.5 -63t129.5 -21.5q175 0 253 88t78 234q3 69 -46 121q-48 51 -118 53zM838 573v7q-3 144 -103 247q-59 59 -127.5 92.5t-131.5 33.5h-2q-19 0 -43.5 -2.5t-65.5 -15.5t-64 -36
q-40 -40 -50 -89.5t2 -93.5t40.5 -91.5t54 -78t54.5 -59.5q110 -110 202 -131q50 -12 99 3.5t83 54.5q24 24 36 53.5t14 49t2 56.5z" />
    <glyph glyph-name="h" unicode="h" horiz-adv-x="1179" 
d="M718 1050q323 0 323 -364v-685h-167v669q0 4 0.5 30.5t0 40t-2.5 43.5t-6 48t-12.5 46t-20.5 45t-31 37t-43 30.5t-57 16.5t-72 4q-90 -6 -154 -44t-163 -132v-834h-168v1547l160 14h8v-690q98 90 195 134t210 44z" />
    <glyph glyph-name="i" unicode="i" horiz-adv-x="456" 
d="M297 1217q-29 -29 -69 -29t-69 29t-29 69t29 68t69 28t69 -28t29 -68t-29 -69zM145 1003l158 15h8v-1017h-166v1002z" />
    <glyph glyph-name="j" unicode="j" horiz-adv-x="464" 
d="M146 1011l163 7h8v-1086q0 -159 -109.5 -248.5t-307.5 -89.5v41q122 21 184 91.5t62 213.5v1071zM303 1217q-29 -29 -69 -29t-69 29t-29 69t29 68t69 28t69 -28t29 -68t-29 -69z" />
    <glyph glyph-name="k" unicode="k" horiz-adv-x="1107" 
d="M832 2l-496 501l-23 -21v-481h-168v1547l160 14h8v-1036l513 501h51v-4l-407 -413l608 -608h-246z" />
    <glyph glyph-name="l" unicode="l" horiz-adv-x="458" 
d="M305 1562h8v-1561h-168v1547z" />
    <glyph glyph-name="m" unicode="m" horiz-adv-x="1865" 
d="M1403 1050q323 0 323 -364v-685h-167v670q0 9 1 39t1.5 51t-3 54.5t-11 57.5t-24.5 51.5t-41 44.5t-62 28.5t-87 11.5q-91 0 -157 -42t-172 -148q15 -68 14 -133v-685h-166v669q0 27 -0.5 44.5t-4.5 52t-11.5 58t-23.5 53.5t-37.5 48.5t-56.5 31.5t-79 14
q-100 2 -173 -26.5t-157 -110.5v-834h-164v1002l156 15h8v-146q97 92 185 135t200 43q239 0 302 -195q104 101 197 148t210 47z" />
    <glyph glyph-name="n" unicode="n" horiz-adv-x="1177" 
d="M715 1050q323 0 323 -364v-685h-167v669q0 10 1.5 38.5t2.5 51t-2 55t-10 57t-22.5 51.5t-39 44.5t-61.5 29t-87 11.5q-91 0 -170 -41.5t-173 -131.5v-834h-165v1002l157 15h8v-146q98 90 195 134t210 44z" />
    <glyph glyph-name="o" unicode="o" horiz-adv-x="1263" 
d="M1012 903q76 -76 116.5 -174.5t40.5 -205.5q0 -192 -122.5 -340.5t-310.5 -186.5q-124 -25 -244.5 7.5t-214.5 114.5t-142 199q-47 123 -39.5 243.5t70 230t167.5 179.5q160 107 351.5 88t327.5 -155zM992 162q57 57 71 135.5t4 188.5q-20 200 -167 344
q-75 78 -173.5 121.5t-206.5 46.5q-77 0 -132.5 -27t-116.5 -88q-84 -84 -97 -197t38 -228t153 -217q101 -101 213 -148.5t221 -31t193 100.5z" />
    <glyph glyph-name="p" unicode="p" horiz-adv-x="1216" 
d="M675 1050q192 0 316.5 -147t124.5 -375q0 -122 -39.5 -226t-106 -174.5t-155 -110.5t-185.5 -40q-184 0 -315 128v-551h-168v1449l160 15h8v-132q70 77 163.5 119.5t196.5 44.5zM628 9q157 0 241 134.5t84 368.5q0 231 -77 367.5t-224 136.5q-84 0 -175.5 -49
t-161.5 -130v-633q44 -89 128.5 -142t184.5 -53z" />
    <glyph glyph-name="q" unicode="q" horiz-adv-x="1222" 
d="M1063 1042h12v-1488h-174v588q-70 -77 -163.5 -120t-196.5 -45q-192 0 -316.5 147.5t-124.5 375.5q0 122 39.5 226t106 174.5t155 110t185.5 39.5q92 0 177.5 -36t149.5 -103zM901 191v632q-49 93 -132 150.5t-180 57.5q-156 0 -239 -136t-83 -372q0 -231 76 -365
t223 -134q87 0 177 44.5t158 122.5z" />
    <glyph glyph-name="r" unicode="r" horiz-adv-x="786" 
d="M642 1045q53 0 96 -11l-13 -158q-84 31 -155 46q-162 36 -257 -115v-807h-166v1002l158 15h8v-187q141 215 329 215z" />
    <glyph glyph-name="s" unicode="s" horiz-adv-x="905" 
d="M525 565q38 -17 58 -26.5t55.5 -29t55.5 -35t46 -39.5t39.5 -49t23.5 -57.5t10 -69.5q0 -129 -101.5 -205.5t-264.5 -76.5q-193 0 -353 106l67 162q23 -23 60 -73.5t64 -86t72.5 -64.5t95.5 -29q124 0 197.5 52.5t77.5 149.5q1 45 -42.5 88t-82.5 63t-124 58q-11 5 -17 8
l-78 35q-113 51 -189.5 145t-76.5 211q0 115 91.5 181.5t233.5 66.5q175 0 330 -86l-92 -205q-21 17 -49.5 67t-52.5 95t-63 81t-83 36q-107 0 -170 -62.5t-63 -144.5q0 -35 15.5 -66t34 -51t55 -42.5t58 -33t64.5 -29.5q13 -6 20 -9z" />
    <glyph glyph-name="t" unicode="t" horiz-adv-x="788" 
d="M701 931l-312 65l-1 -745q0 -218 140 -245v-29h-3q-83 0 -145.5 23t-97 61.5t-51 83t-14.5 91.5l-1 760l-154 -50l-15 80l159 1l26 307h8l148 -307h362z" />
    <glyph glyph-name="u" unicode="u" horiz-adv-x="1181" 
d="M1035 173l1 -173h-146l-30 154v9q-84 -85 -189 -135.5t-211 -50.5q-162 0 -242.5 90t-80.5 275v661l166 15h8v-661q0 -8 -0.5 -29.5t-1 -37.5t1 -41t4.5 -44.5t10.5 -43t19 -41.5t29.5 -35.5t41 -29t56 -18.5t72 -7q163 0 317 180v793l167 15h8v-845z" />
    <glyph glyph-name="v" unicode="v" horiz-adv-x="1003" 
d="M954 1025l-350 -940l43 -104h-161l-441 1046h168l376 -890l326 889z" />
    <glyph glyph-name="w" unicode="w" horiz-adv-x="1562" 
d="M1511 1025l-357 -962l28 -82h-139l-253 603l-191 -514l38 -89h-151l-441 1046h168l369 -909l188 512l-167 397h140l89 -227l83 226l39 -1l-102 -274l282 -648l339 923z" />
    <glyph glyph-name="x" unicode="x" horiz-adv-x="1136" 
d="M632 573l461 -571h-200l-370 468l-438 -468h-44l461 495l-419 530h183l344 -427l384 427h50z" />
    <glyph glyph-name="y" unicode="y" horiz-adv-x="956" 
d="M867 1030l39 -1l-371 -996l-9 -25l-6 -16l-2 -5l-1 -2l-64 -147q-32 -79 -92.5 -139t-133.5 -91.5t-143.5 -46.5t-138.5 -15l12 223q38 -8 74 -8q20 0 68 -8t90 -12t88.5 -1t83.5 27.5t55 70.5l71 176l-443 1016h168l359 -808z" />
    <glyph glyph-name="z" unicode="z" horiz-adv-x="942" 
d="M852 160l24 -159h-825v8l623 988h-85q-85 0 -157.5 -27t-137 -60.5t-115.5 -42.5h-6l-19 160h719v-8l-623 -989h176q67 0 130 17t103.5 38.5t92.5 44t94 30.5h6z" />
    <glyph glyph-name="braceleft" unicode="{" horiz-adv-x="552" 
d="M526 1515q-138 0 -187 -47t-49 -168q0 -70 27 -151.5t54 -159.5t27 -139q0 -103 -33.5 -163t-121.5 -81q88 -21 121.5 -81t33.5 -163q0 -61 -27 -139t-54 -159.5t-27 -151.5q0 -121 49 -168t187 -47v-23q-188 0 -284.5 64t-96.5 201q0 59 28.5 125t63 114.5t63 107
t28.5 104.5q0 95 -34.5 149.5t-121.5 54.5v24q87 0 121.5 54.5t34.5 149.5q0 46 -28.5 104.5t-63 107t-63 114.5t-28.5 125q0 137 96.5 201t284.5 64v-23z" />
    <glyph glyph-name="verticalbar" unicode="|" horiz-adv-x="395" 
d="M230 -135h-66v1682h66v-1682z" />
    <glyph glyph-name="braceright" unicode="}" horiz-adv-x="552" 
d="M380 594q-45 0 -76.5 -15.5t-48 -44.5t-23.5 -63.5t-7 -80.5t28.5 -104.5t62.5 -107t62.5 -114.5t28.5 -125q0 -137 -96 -201t-284 -64v23q138 0 186.5 47t48.5 168q0 70 -27 151.5t-54 159.5t-27 139q0 102 34 162.5t122 81.5q-88 21 -122 81.5t-34 162.5q0 61 27 139
t54 159.5t27 151.5q0 121 -48.5 168t-186.5 47v23q188 0 284 -64t96 -201q0 -59 -28.5 -125t-62.5 -114.5t-62.5 -107t-28.5 -104.5t7 -80.5t23.5 -63.5t48 -44.5t76.5 -15.5v-24z" />
    <glyph glyph-name="asciitilde" unicode="~" horiz-adv-x="972" 
d="M840 848l24 -6q-11 -60 -23.5 -104.5t-32 -90t-48.5 -70t-65 -24.5q-50 0 -113 27t-113.5 59t-110.5 59t-103 27q-9 0 -24 0.5t-21 0.5t-17 -1t-15 -3.5t-11.5 -7.5t-11 -12t-9 -17.5t-9 -25t-7.5 -33.5l-24 5q11 58 23.5 100.5t32 82t48 60.5t65.5 21q50 0 113 -26.5
t113.5 -59t110.5 -59t103 -26.5q62 0 85 21t40 103z" />
    <glyph glyph-name="nonbreakingspace" unicode="&#xa0;" horiz-adv-x="702" 
 />
    <glyph glyph-name="sterling" unicode="&#xa3;" horiz-adv-x="1222" 
d="M1093 0h-832v627h-126v41h126v394q1 111 66.5 198t164 130.5t209.5 43.5q249 0 389 -244l-23 -14q-75 109 -168 172.5t-176 63.5q-125 0 -205.5 -102.5t-80.5 -247.5v-394h366v-41h-366l-2 -610h47q60 0 274 70.5t315 85.5l4 -74z" />
    <glyph glyph-name="softhyphen" unicode="&#xad;" horiz-adv-x="0" 
 />
    <glyph glyph-name="Agrave" unicode="&#xc0;" horiz-adv-x="1333" 
d="M672 1519l-13 -9l-317 301h185zM732 1448l562 -1449h-231l-182 474h-613q-28 -74 -34.5 -92t-15 -39t-15.5 -37t-40 -97.5t-84 -208.5h-42q76 182 245 621l321 828h129zM272 490h602l-301 776l-254 -658z" />
    <glyph glyph-name="Aacute" unicode="&#xc1;" horiz-adv-x="1333" 
d="M732 1448l562 -1449h-231l-182 474h-613q-28 -74 -34.5 -92t-15 -39t-15.5 -37t-40 -97.5t-84 -208.5h-42q76 182 245 621l321 828h129zM272 490h602l-301 776l-254 -658zM937 1811l-315 -301l-13 9l143 292h185z" />
    <glyph glyph-name="Acircumflex" unicode="&#xc2;" horiz-adv-x="1333" 
d="M666 1693l-296 -183l-11 9l301 292h11l302 -292l-12 -9zM732 1448l562 -1449h-231l-182 474h-613q-28 -74 -34.5 -92t-15 -39t-15.5 -37t-40 -97.5t-84 -208.5h-42q76 182 245 621l321 828h129zM272 490h602l-301 776l-254 -658z" />
    <glyph glyph-name="Atilde" unicode="&#xc3;" horiz-adv-x="1333" 
d="M428 1638q-10 0 -17.5 -1t-14 -4.5t-11 -6t-9 -10t-7 -11t-6 -15t-5 -16t-5.5 -20t-6 -21.5l-19 3q17 97 42.5 140t90.5 43q60 0 192 -53.5t176 -53.5q10 0 17.5 1t14 5t11 6.5t9 10t7 11.5t6 15t5 16.5t5.5 20t6 21.5l17 -4q-17 -97 -42 -139.5t-90 -42.5
q-61 0 -192 52.5t-175 52.5zM732 1448l562 -1448h-231l-182 473h-613q-27 -72 -34.5 -91.5t-15.5 -39t-15.5 -36.5t-40 -97.5t-83.5 -208.5h-42q81 194 245 620l321 828h129zM272 490h602l-301 776l-254 -658z" />
    <glyph glyph-name="Adieresis" unicode="&#xc4;" horiz-adv-x="1333" 
d="M878 1591q-20 -20 -46 -20q-27 0 -46 19q-32 30 -15 71q8 18 24.5 29.5t35.5 11.5q43 0 60 -40t-13 -71zM530 1590q-19 -19 -45.5 -19t-46.5 19q-19 19 -19 46t19 46t46 19t46 -19t19 -46t-19 -46zM732 1448l562 -1449h-231l-182 474h-613q-28 -74 -34.5 -92t-15 -39
t-15.5 -37t-40 -97.5t-84 -208.5h-42q76 182 245 621l321 828h129zM273 490h601l-301 776l-254 -658z" />
    <glyph glyph-name="Aring" unicode="&#xc5;" horiz-adv-x="1333" 
d="M733 1448l561 -1449h-231l-182 474h-613q-28 -74 -34.5 -92t-15 -39t-15.5 -37t-40 -97.5t-84 -208.5h-42q76 182 245 621l321 828h130zM273 490h601l-301 776l-254 -658zM666 1498q-84 -3 -143 53t-59 140q-1 79 54.5 136t135.5 59q79 1 137 -53.5t60 -134.5t-52 -138.5
t-133 -61.5zM666 1862q-72 3 -126 -48q-53 -50 -53 -123q0 -70 49 -119t119 -50t120 47t52 118t-44.5 121t-116.5 54z" />
    <glyph glyph-name="AE" unicode="&#xc6;" horiz-adv-x="1646" 
d="M1596 0h-857v713h-311l-356 -713h-45l712 1425h828l-39 -142h-3q-83 11 -240 59t-251 48h-133v-630h385v-36h-385v-689h133q93 0 262.5 57t255.5 69h4zM451 760h288v576z" />
    <glyph glyph-name="Ccedilla" unicode="&#xc7;" horiz-adv-x="1425" 
d="M783 -98q87 -6 139.5 -48t52.5 -102q0 -69 -56.5 -111.5t-141.5 -42.5q-74 0 -139 28l6 17q50 -15 111 -17q65 0 104.5 28.5t39.5 71.5q0 39 -39 66t-103 27h-47l63 141l36 -2zM1353 218l11 -9q-11 -13 -35 -37q-139 -139 -325.5 -188.5t-373.5 0t-326 188.5t-188.5 326
t0.5 373.5t189 325.5t326 188.5t373.5 0t325.5 -188.5q8 -8 24 -26l-133 -126q-4 4 -12 12.5t-12 12.5q-140 140 -297 208t-312.5 47.5t-273.5 -138.5q-117 -117 -135.5 -278t52.5 -323t211 -302t296 -204.5t310 -40t272 142.5q23 23 33 36z" />
    <glyph glyph-name="Egrave" unicode="&#xc8;" horiz-adv-x="1071" 
d="M650 1519l-13 -9l-317 301h185zM980 161l41 -161h-857v1425h828l-39 -142h-4q-83 11 -239.5 59t-250.5 48h-133v-630h385v-36h-385v-689h133q93 0 262 57t255 69h4z" />
    <glyph glyph-name="Eacute" unicode="&#xc9;" horiz-adv-x="1071" 
d="M757 1811l-316 -301l-13 9l145 292h184zM980 161l41 -161h-857v1425h828l-39 -142h-4q-83 11 -239.5 59t-250.5 48h-133v-630h385v-36h-385v-689h133q93 0 262 57t255 69h4z" />
    <glyph glyph-name="Ecircumflex" unicode="&#xca;" horiz-adv-x="1071" 
d="M579 1693l-298 -183l-11 9l303 292h11l302 -292l-12 -9zM980 161l41 -161h-857v1425h828l-39 -142h-4q-83 11 -239.5 59t-250.5 48h-133v-630h385v-36h-385v-689h133q93 0 262 57t255 69h4z" />
    <glyph glyph-name="Edieresis" unicode="&#xcb;" horiz-adv-x="1073" 
d="M438 1591q-20 -20 -46 -20q-27 0 -46 19t-19.5 46t18.5 46t46 19.5t46 -18.5t19.5 -46t-18.5 -46zM786 1590q-19 -19 -47 -19q-27 0 -46 19q-31 31 -14 71q8 18 24.5 29.5t35.5 11.5t36 -11.5t25 -29.5q17 -40 -14 -71zM980 161l41 -162h-857v1426h828l-39 -143h-4
q-83 11 -239.5 59t-250.5 48h-133v-630h385v-35h-385v-690h133q93 0 262 57.5t255 69.5h4z" />
    <glyph glyph-name="Igrave" unicode="&#xcc;" horiz-adv-x="495" 
d="M268 1519l-13 -9l-314 301h184zM163 1426l168 -3v-1425l-168 2v1426z" />
    <glyph glyph-name="Iacute" unicode="&#xcd;" horiz-adv-x="495" 
d="M538 1811l-315 -301l-13 9l143 292h185zM164 0v1426l168 -3v-1425z" />
    <glyph glyph-name="Icircumflex" unicode="&#xce;" horiz-adv-x="495" 
d="M164 0v1426l168 -3v-1425zM253 1811l302 -292l-12 -9l-295 183l-296 -183l-11 9l301 292h11z" />
    <glyph glyph-name="Idieresis" unicode="&#xcf;" horiz-adv-x="495" 
d="M468 1682q19 -19 19 -45.5t-19 -45.5q-31 -31 -72 -15q-40 16 -40 60q0 45 40 61q41 16 72 -15zM27 1682q20 19 47 19t46 -19q19 -20 19 -46.5t-19 -45.5t-46.5 -19t-46.5 19t-19 45.5t19 46.5zM163 0v1426l168 -3v-1425z" />
    <glyph glyph-name="Ntilde" unicode="&#xd1;" horiz-adv-x="1267" 
d="M439 1638q-42 0 -66.5 -26t-39.5 -79l-17 3q31 183 157 183q61 0 192 -53.5t175 -53.5q42 0 66 26.5t39 80.5l19 -4q-31 -182 -158 -182q-60 0 -190.5 52.5t-176.5 52.5zM1077 1431h26v-1460h-11l-896 1317v-1290h-21v1324l-62 93v5h211l753 -1108v1119z" />
    <glyph glyph-name="Ograve" unicode="&#xd2;" horiz-adv-x="1634" 
d="M840 1519l-13 -9l-317 301h185zM1330 1215q139 -139 188.5 -326t-0.5 -373.5t-189 -325.5t-325.5 -188.5t-373.5 0t-326 188.5t-188.5 326t0.5 373.5t189 325.5t326 188.5t373.5 0t325.5 -188.5zM1320 199q88 88 118 199t3.5 225.5t-95 229t-174.5 220.5
q-142 142 -291.5 212.5t-299.5 53.5t-267 -134q-88 -88 -117 -204.5t-1.5 -237t97.5 -241t175 -225.5q140 -140 289.5 -203t297 -38t265.5 143z" />
    <glyph glyph-name="Oacute" unicode="&#xd3;" horiz-adv-x="1634" 
d="M1108 1811l-314 -301l-14 9l144 292h184zM1330 1215q139 -139 188.5 -326t-0.5 -373.5t-189 -325.5t-325.5 -188.5t-373.5 0t-326 188.5t-188.5 326t0.5 373.5t189 325.5t326 188.5t373.5 0t325.5 -188.5zM1320 199q88 88 118 199t3.5 225.5t-95 229t-174.5 220.5
q-142 142 -291.5 212.5t-299.5 53.5t-267 -134q-88 -88 -117 -204.5t-1.5 -237t97.5 -241t175 -225.5q140 -140 289.5 -203t297 -38t265.5 143z" />
    <glyph glyph-name="Ocircumflex" unicode="&#xd4;" horiz-adv-x="1634" 
d="M796 1693l-296 -183l-11 9l301 292h11l302 -292l-12 -9zM1330 1215q139 -139 188.5 -326t-0.5 -373.5t-189 -325.5t-325.5 -188.5t-373.5 0t-326 188.5t-188.5 326t0.5 373.5t189 325.5t326 188.5t373.5 0t325.5 -188.5zM1320 199q88 88 118 199t3.5 225.5t-95 229
t-174.5 220.5q-142 142 -291.5 212.5t-299.5 53.5t-267 -134q-88 -88 -117 -204.5t-1.5 -237t97.5 -241t175 -225.5q140 -140 289.5 -203t297 -38t265.5 143z" />
    <glyph glyph-name="Otilde" unicode="&#xd5;" horiz-adv-x="1634" 
d="M596 1638q-10 0 -17.5 -1t-14 -4.5t-11 -6t-9 -10t-7 -11t-6 -15t-5 -16t-5.5 -20t-6 -21.5l-19 3q16 96 42.5 139.5t91.5 43.5q60 0 191.5 -53.5t175.5 -53.5q10 0 17.5 1t14 5t11 6.5t9 10t7 11.5t6 15t5 16.5t5.5 20t6 21.5l17 -4q-17 -97 -42 -139.5t-90 -42.5
q-61 0 -192 52.5t-175 52.5zM1330 1215q139 -139 188.5 -326t-0.5 -373.5t-189 -325.5t-325.5 -188.5t-373.5 0t-326 188.5t-188.5 326t0.5 373.5t189 325.5t326 188.5t373.5 0t325.5 -188.5zM1320 199q88 88 118 199t3.5 225.5t-95 229t-174.5 220.5q-142 142 -291.5 212.5
t-299.5 53.5t-267 -134q-88 -88 -117 -204.5t-1.5 -237t97.5 -241t175 -225.5q140 -140 289.5 -203t297 -38t265.5 143z" />
    <glyph glyph-name="Odieresis" unicode="&#xd6;" horiz-adv-x="1634" 
d="M671 1590q-19 -19 -45.5 -19t-46.5 19q-19 19 -19 46t19 46t46 19t46 -19t19 -46t-19 -46zM1019 1591q-20 -20 -46 -20q-27 0 -46 19q-32 30 -15 71q8 18 24.5 29.5t35.5 11.5q20 0 37 -11t24 -29q16 -39 -14 -71zM1330 1215q102 -102 157 -235.5t55 -277.5t-55.5 -277
t-157.5 -235q-139 -139 -325.5 -188.5t-373.5 0t-326 188.5t-188.5 326t0.5 373.5t189 325.5t326 188.5t373.5 0t325.5 -188.5zM1320 199q88 88 118 199t3.5 225.5t-95 229t-174.5 220.5q-142 142 -291.5 212.5t-299.5 53.5t-267 -134q-88 -88 -117 -204.5t-1.5 -237
t97.5 -241t175 -225.5q140 -140 289.5 -203t297 -38t265.5 143z" />
    <glyph glyph-name="Oslash" unicode="&#xd8;" horiz-adv-x="1642" 
d="M1333 1215q129 -129 181.5 -300t19.5 -346.5t-146 -317.5t-277 -213t-342.5 -58.5t-332.5 108.5l-144 -199l-19 14l143 197q-166 111 -251.5 291t-67.5 379q18 198 135.5 359t301.5 240q183 79 380 53t354 -150l127 174l19 -14l-127 -175q21 -17 46 -42zM471 297
q34 -34 52 -49l622 854q-139 130 -283 192.5t-287.5 43t-256.5 -132.5q-88 -88 -117 -204.5t-2 -237t97 -241t175 -225.5zM1323 199q88 88 118 199t3.5 225.5t-95 229t-174.5 220.5q-2 2 -6.5 6t-6.5 6l-621 -853q132 -111 269 -156.5t270.5 -15.5t242.5 139z" />
    <glyph glyph-name="Ugrave" unicode="&#xd9;" horiz-adv-x="1261" 
d="M669 1519l-13 -9l-315 301h185zM1083 1429h28v-955q0 -242 -121 -370t-359 -128q-235 0 -358 125.5t-123 362.5v961h167v-951q0 -115 16 -194t54.5 -138t106.5 -87t169 -28q197 0 308.5 115t111.5 329v958z" />
    <glyph glyph-name="Uacute" unicode="&#xda;" horiz-adv-x="1261" 
d="M923 1811l-316 -301l-13 9l145 292h184zM1083 1429h28v-955q0 -242 -121 -370t-359 -128q-235 0 -358 125.5t-123 362.5v961h167v-951q0 -115 16 -194t54.5 -138t106.5 -87t169 -28q197 0 308.5 115t111.5 329v958z" />
    <glyph glyph-name="Ucircumflex" unicode="&#xdb;" horiz-adv-x="1261" 
d="M630 1693l-295 -183l-12 9l302 292h11l301 -292l-11 -9zM1083 1429h28v-955q0 -242 -121 -370t-359 -128q-235 0 -358 125.5t-123 362.5v961h167v-951q0 -115 16 -194t54.5 -138t106.5 -87t169 -28q197 0 308.5 115t111.5 329v958z" />
    <glyph glyph-name="Udieresis" unicode="&#xdc;" horiz-adv-x="1261" 
d="M458 1571q-27 0 -46 19t-19 46t19 46.5t46 19.5t46 -19.5t19 -46.5t-19 -46t-46 -19zM853 1590q-19 -19 -47 -19q-27 0 -46 19q-31 31 -14 71q8 18 24.5 29.5t35.5 11.5t36 -11.5t25 -29.5q17 -40 -14 -71zM1083 1429h28v-955q0 -242 -121 -370t-359 -128
q-235 0 -358 125.5t-123 362.5v961h167v-951q0 -115 16 -194t54.5 -138t106.5 -87t169 -28q197 0 308.5 115t111.5 329v958z" />
    <glyph glyph-name="Yacute" unicode="&#xdd;" horiz-adv-x="1169" 
d="M1119 1425h27q-145 -242 -341 -582l-119 -206v-638l-164 3v635l-502 788h219l438 -767l106 182zM911 1811l-315 -301l-13 9l143 292h185z" />
    <glyph glyph-name="germandbls" unicode="&#xdf;" horiz-adv-x="1181" 
d="M989 693q103 -123 97 -286q5 -165 -98 -297q-49 -60 -120 -92.5t-149 -28.5q-65 -5 -120 29l16 167q6 -7 34 -39.5t50 -57.5t47 -47.5t36 -22.5q35 0 63.5 19t41.5 51q33 66 33 237q0 291 -77 399q-79 109 -278 109h-28l4 22q4 -1 13 -1q302 0 302 317q0 172 -68 260
q-69 89 -207 89q-109 6 -195 -60l-6 -3q-41 -48 -43 -465v-36v-648q0 -272 4 -307h-198q4 46 4 307v647q-3 126 14 257q15 88 73 164q61 80 151 121q101 45 210 43q197 0 312 -100q55 -43 85.5 -106.5t30.5 -133.5q3 -122 -82 -210q-39 -41 -121.5 -81t-161.5 -62l53 -11
q182 -32 278 -143z" />
    <glyph glyph-name="agrave" unicode="&#xe0;" 
d="M636 1150l-13 -9l-297 319h162zM601 1044q160 0 240.5 -89t80.5 -275v-680h-173l-5 135q-163 -149 -384 -154q-120 0 -195 61.5t-75 169.5q0 139 123.5 231.5t326.5 116.5q79 9 204 17v93q0 338 -266 338q-49 0 -95 -35.5t-102 -100.5t-87 -91l-56 116q76 69 211 108
t252 39zM744 173v356q-87 3 -162 -1.5t-146 -20.5t-119.5 -43.5t-76 -73t-23.5 -106.5q8 -111 70 -166.5t161 -55.5q91 0 160 23t136 88z" />
    <glyph glyph-name="aacute" unicode="&#xe1;" 
d="M755 1460l-295 -319l-13 9l147 310h161zM601 1044q160 0 240.5 -89t80.5 -275v-680h-173l-5 136q-164 -150 -384 -155q-120 0 -195 61.5t-75 169.5q0 139 123.5 231.5t326.5 116.5q97 11 204 18v92q0 339 -266 339q-49 0 -95 -35.5t-102 -100.5t-87 -91l-56 115
q76 69 211 108t252 39zM744 173v356q-87 3 -162 -1.5t-146 -20.5t-119.5 -43.5t-76 -73t-23.5 -106.5q8 -111 70 -166.5t161 -55.5q91 0 160 23t136 88z" />
    <glyph glyph-name="acircumflex" unicode="&#xe2;" 
d="M532 1338l-263 -197l-11 9l269 310h11l266 -310l-11 -9zM601 1044q160 0 240.5 -89t80.5 -275v-680h-173l-5 135q-163 -149 -384 -154q-120 0 -195 61.5t-75 169.5q0 139 123.5 231.5t326.5 116.5q79 9 204 17v93q0 338 -266 338q-49 0 -95 -35.5t-102 -100.5t-87 -91
l-56 116q76 69 211 108t252 39zM744 173v356q-87 3 -162 -1.5t-146 -20.5t-119.5 -43.5t-76 -73t-23.5 -106.5q8 -111 70 -166.5t161 -55.5q91 0 160 23t136 88z" />
    <glyph glyph-name="atilde" unicode="&#xe3;" 
d="M345 1271q-43 0 -66.5 -26t-40.5 -81l-17 3q31 182 156 182q49 0 112.5 -26.5t123 -52.5t98.5 -26q42 0 66 25.5t39 79.5l17 -3q-15 -88 -52 -135t-104 -47q-49 0 -112 27t-122 53.5t-98 26.5zM601 1043q160 0 240.5 -89.5t80.5 -275.5v-679h-173l-5 135
q-164 -150 -384 -155q-120 0 -195 61.5t-75 169.5q0 139 123.5 231.5t326.5 116.5q97 11 204 18v93q0 338 -266 338q-49 0 -95 -35.5t-102 -100.5t-87 -91l-56 116q76 69 211 108t252 39zM744 171v357q-111 4 -201.5 -5.5t-169 -35t-120 -78t-36.5 -127.5q8 -111 69.5 -166
t160.5 -55q92 0 161 22.5t136 87.5z" />
    <glyph glyph-name="adieresis" unicode="&#xe4;" 
d="M316 1216l-9 9q-18 18 -18 42t18 42l9 9q17 17 41.5 16.5t41.5 -17.5l8 -9q17 -17 17 -41t-17 -41l-8 -9q-17 -17 -41.5 -17.5t-41.5 16.5zM648 1217l-8 8q-17 17 -17 42t17 42l8 8q17 17 42 17t42 -17l8 -8q18 -18 18 -42t-18 -42l-8 -8q-18 -18 -42 -18t-42 18z
M601 1043q160 0 240.5 -89.5t80.5 -275.5v-680h-173l-5 136q-164 -150 -384 -155q-120 0 -195 61.5t-75 169.5q0 139 123.5 231.5t326.5 116.5q97 11 204 18v93q0 338 -266 338q-49 0 -95 -35.5t-102 -100.5t-87 -91l-56 116q76 69 211 108t252 39zM744 171v357
q-111 4 -201.5 -5.5t-169 -35t-120 -78t-36.5 -127.5q8 -111 70 -166t161 -55q92 0 160.5 22.5t135.5 87.5z" />
    <glyph glyph-name="aring" unicode="&#xe5;" 
d="M539 1129q-76 -3 -117 64q-19 31 -19 67t19 67q40 66 117 63q36 2 67.5 -15t50.5 -48t19 -67t-19 -67t-50.5 -48t-67.5 -16zM539 1374q-48 2 -84 -31q-34 -31 -36 -83q0 -47 32.5 -80.5t79.5 -34.5t81.5 31.5t35.5 79.5q2 47 -30 81.5t-79 36.5zM601 1044
q160 0 240.5 -89t80.5 -275v-680h-173l-5 136q-164 -150 -384 -155q-120 0 -195 61.5t-75 169.5q0 139 123.5 231.5t326.5 116.5q79 9 204 17v93q0 338 -266 338q-49 0 -95 -35.5t-102 -100.5t-87 -91l-56 116q76 69 211 108t252 39zM744 173v356q-87 3 -162 -1.5
t-146 -20.5t-119.5 -43.5t-76 -73t-23.5 -106.5q8 -111 69.5 -166.5t160.5 -55.5q91 0 160.5 23t136.5 88z" />
    <glyph glyph-name="ae" unicode="&#xe6;" horiz-adv-x="1802" 
d="M1696 186h36q-69 -91 -170 -145.5t-215 -62.5t-221 32t-188 121l-5 5t-6 5.5t-5 5.5q-38 43 -66 91l-112 -97q-164 -150 -384 -155q-120 0 -195 61.5t-75 169.5q0 136 121 217.5t330 105.5q80 9 203 17v118q0 166 -65.5 247.5t-200.5 81.5q-38 0 -78 -30t-69 -69
t-69 -88.5t-70 -75.5l-29 161q77 70 200.5 108.5t237.5 38.5q246 0 303 -211q22 26 34 38q166 166 345 163h8h8q3 0 7.5 -0.5t6.5 -0.5l1 -1q153 -14 245 -121t102 -288q0 -6 0.5 -16t0.5 -16h-817q-5 -136 77 -244q44 -63 98 -116q103 -99 219.5 -147.5t230 -34.5t195.5 96
q14 14 31 36zM912 802q-53 -77 -64 -174h638v13v2q0 1 -3 37q0 1 -0.5 3.5t-0.5 3.5q-8 62 -25.5 111.5t-39.5 78.5t-46.5 49.5t-48 28.5t-42.5 12t-30 3h-12q-79 2 -152.5 -28t-128.5 -85q-26 -26 -45 -55zM744 178v331q-83 1 -161.5 1t-147 -13.5t-118.5 -36.5t-77 -66.5
t-23 -104.5q8 -111 70 -166.5t161 -55.5q91 0 160 23t136 88z" />
    <glyph glyph-name="ccedilla" unicode="&#xe7;" horiz-adv-x="1116" 
d="M1017 202l25 -22l-7 -9q-8 -9 -26 -27q-75 -76 -173.5 -116.5t-205.5 -40.5h-13l-21 -45q87 -6 139.5 -48t52.5 -102q0 -69 -56 -111.5t-141 -42.5q-74 0 -139 28l5 17q50 -15 111 -17q65 0 105 28.5t40 71.5q0 39 -39.5 66.5t-103.5 27.5h-47l58 129q-140 13 -254 91.5
t-176 202t-56 264.5t79 258.5t194 185.5t262 68q107 0 205.5 -40.5t173.5 -116.5q3 -3 9 -9.5t9 -9.5l8 -9l-130 -153q-68 124 -107 171q-84 102 -195 112q-200 18 -306 -88q-62 -63 -91 -146t-20 -171q23 -198 164.5 -339.5t339.5 -164.5q108 -9 173.5 3.5t121.5 68.5
q17 17 24 26z" />
    <glyph glyph-name="egrave" unicode="&#xe8;" horiz-adv-x="1114" 
d="M1008 192h36q-21 -28 -48 -55q-100 -101 -236.5 -138t-273.5 0t-237 136.5t-137 236.5t0 273.5t138 236.5q166 166 345 163v1q1 0 4 -0.5t4 -0.5h8q3 0 7 -0.5t7 -0.5h1q153 -14 245 -121t102 -288q0 -5 0.5 -15.5t0.5 -16.5h-817q-4 -96 40.5 -182.5t135.5 -177.5
q103 -99 219 -148t229.5 -35t195.5 96q14 14 31 36zM270 863q-95 -96 -110 -228h639q0 2 -0.5 6.5t-0.5 6.5v2q0 6 -0.5 12t-1.5 13t-1 11q0 1 -0.5 4t-0.5 4q-8 62 -25.5 111.5t-39.5 78t-46.5 49t-48 28.5t-42.5 12t-30 3h-12q-164 3 -280 -113zM620 1150l-13 -9l-295 319
h160z" />
    <glyph glyph-name="eacute" unicode="&#xe9;" horiz-adv-x="1116" 
d="M1009 192l36 1q-24 -32 -48 -56q-100 -101 -237 -138.5t-274 -0.5t-237.5 137t-136.5 237q-36 138 1 274t138 236q167 167 345 164h8q2 0 4.5 -0.5t3.5 -0.5q2 0 7 -0.5t7 -0.5h1q153 -14 245 -121t102 -288q0 -5 0.5 -15.5t0.5 -16.5h-817q-4 -96 40.5 -182.5
t135.5 -177.5q103 -99 219 -148t229.5 -35t195.5 96q14 14 31 36zM271 863q-94 -94 -110 -228h638v13v2q0 6 -0.5 12t-1.5 13t-1 11q0 1 -0.5 4t-0.5 4q-8 62 -25.5 111.5t-39.5 78t-46.5 49t-48 28.5t-42.5 12t-31 3h-11q-164 3 -280 -113zM879 1460l-295 -319l-13 9
l148 310h160z" />
    <glyph glyph-name="ecircumflex" unicode="&#xea;" horiz-adv-x="1116" 
d="M1009 192l36 1q-24 -32 -48 -56q-100 -101 -237 -138.5t-274 -0.5t-237.5 137t-136.5 237q-36 138 1 274t138 236q167 167 345 164h8q2 0 4.5 -0.5t3.5 -0.5q2 0 7 -0.5t7 -0.5h1q153 -14 245 -121t102 -288q0 -5 0.5 -15.5t0.5 -16.5h-817q-4 -96 40.5 -182.5
t135.5 -177.5q103 -99 219 -148t229.5 -35t195.5 96q14 14 31 36zM271 863q-94 -94 -110 -228h639q0 2 -0.5 6.5t-0.5 6.5v2q0 6 -0.5 12t-1.5 13t-1 11q0 1 -0.5 4t-0.5 4q-8 62 -25.5 111.5t-39.5 78t-46.5 49t-48 28.5t-42.5 12t-31 3h-11q-164 3 -280 -113zM571 1338
l-261 -197l-11 9l266 310h12l266 -310l-11 -9z" />
    <glyph glyph-name="edieresis" unicode="&#xeb;" horiz-adv-x="1116" 
d="M1010 192h35q-21 -28 -48 -55q-100 -101 -237 -138.5t-274 -1.5t-237.5 137t-136.5 238t1.5 273.5t138.5 236.5q166 166 345 163v1h8q2 0 4.5 -0.5t3.5 -0.5q3 0 7 -0.5t6 -0.5h2q153 -14 245.5 -121.5t101.5 -287.5q0 -5 0.5 -15.5t0.5 -16.5h-817q-4 -96 40 -182.5
t135 -177.5q103 -99 219 -148t229.5 -35t195.5 96q19 19 32 36zM271 863q-94 -94 -110 -228h639v13v2q0 6 -0.5 12t-1.5 13t-1 11q0 1 -0.5 4t-0.5 4q-8 62 -25.5 111.5t-39.5 78t-46.5 49t-48 28.5t-42.5 12t-30 3h-12q-79 2 -152.5 -28t-128.5 -85zM776 1221
q-19 -19 -46 -19t-46 19q-31 31 -14 71t60 40t60 -40t-14 -71zM443 1221q-19 -19 -45 -19q-29 0 -47 18q-19 19 -19.5 46t18.5 46t46 19.5t46 -18.5t19.5 -46t-18.5 -46z" />
    <glyph glyph-name="igrave" unicode="&#xec;" horiz-adv-x="458" 
d="M252 1151l-14 -10l-293 319h161zM304 1017h8v-1017h-166v1002z" />
    <glyph glyph-name="iacute" unicode="&#xed;" horiz-adv-x="458" 
d="M518 1460l-295 -319l-13 10l147 309h161zM145 1002l158 15h8v-1017h-166v1002z" />
    <glyph glyph-name="icircumflex" unicode="&#xee;" horiz-adv-x="456" 
d="M145 1002l158 15h8v-1017h-166v1002zM256 1460l268 -309l-11 -10l-262 197l-260 -197l-11 10l265 309h11z" />
    <glyph glyph-name="idieresis" unicode="&#xef;" horiz-adv-x="458" 
d="M7 1309q19 19 46 19q26 0 45 -19q31 -31 14 -71t-59 -40q-43 0 -60 40t14 71zM431 1308q19 -19 19 -45.5t-19 -45.5q-30 -31 -71 -14q-40 17 -40 60t40 60q41 17 71 -15zM146 1003l158 14h8v-1017h-166v1003z" />
    <glyph glyph-name="ntilde" unicode="&#xf1;" horiz-adv-x="1177" 
d="M410 1271q-42 0 -66 -26.5t-39 -80.5l-19 3q31 182 157 182q49 0 112.5 -26.5t122.5 -52.5t98 -26q42 0 66 25.5t39 79.5l17 -3q-28 -182 -156 -182q-49 0 -112 27t-122 53.5t-98 26.5zM715 1052q323 0 323 -364v-685h-167v669q0 10 1.5 38.5t2.5 51t-2 55t-10 57
t-22.5 51.5t-39 44.5t-61.5 29t-87 11.5q-91 0 -170 -41.5t-173 -131.5v-834h-165v1002l157 39h8v-170q98 90 195 134t210 44z" />
    <glyph glyph-name="ograve" unicode="&#xf2;" horiz-adv-x="1263" 
d="M1011 896q76 -76 117 -175t41 -205q0 -192 -122.5 -340.5t-310.5 -186.5q-124 -25 -244.5 8t-214.5 115t-142 199q-73 178 -17.5 361.5t215.5 290.5t351 88t327 -155zM992 156q57 57 71 135t4 188q-20 201 -167 345q-75 78 -173.5 121.5t-206.5 46.5q-77 0 -132.5 -27
t-116.5 -88q-84 -84 -97 -197t38 -228t153 -217q101 -101 213 -148.5t221 -31t193 100.5zM671 1150l-13 -9l-297 319h162z" />
    <glyph glyph-name="oacute" unicode="&#xf3;" horiz-adv-x="1263" 
d="M906 1460l-295 -319l-13 9l146 310h162zM1011 887q76 -76 117 -175t41 -205q0 -192 -122.5 -340.5t-310.5 -186.5q-124 -25 -244.5 7.5t-214.5 114.5t-142 199q-73 178 -17.5 361.5t215.5 290.5t351 88.5t327 -154.5zM992 146q57 57 71 135.5t4 188.5q-20 200 -167 344
q-75 78 -173.5 122t-206.5 46q-77 0 -132.5 -27t-116.5 -88q-84 -84 -97 -197t38 -228t153 -217q101 -101 213 -148.5t221 -31t193 100.5z" />
    <glyph glyph-name="ocircumflex" unicode="&#xf4;" horiz-adv-x="1263" 
d="M634 1338l-263 -197l-12 9l269 310h11l267 -310l-11 -9zM1012 888q76 -76 116.5 -174.5t40.5 -205.5q0 -192 -122.5 -340.5t-310.5 -186.5q-124 -25 -244.5 8t-214.5 115t-142 199q-73 178 -17.5 361.5t215.5 290.5t351.5 88t327.5 -155zM992 148q57 57 71 134.5t4 188.5
q-20 201 -167 345q-75 78 -173.5 121.5t-206.5 46.5q-77 0 -132.5 -27t-116.5 -88q-84 -84 -97 -197t38 -228t153 -217q101 -101 213 -148.5t221 -31t193 100.5z" />
    <glyph glyph-name="otilde" unicode="&#xf5;" horiz-adv-x="1263" 
d="M424 1271q-11 0 -19.5 -2t-14.5 -4.5t-11.5 -9.5t-9 -11t-7.5 -16t-5.5 -17.5t-6 -22.5t-6.5 -24l-19 3q8 48 16 76.5t22 55t37.5 38.5t57.5 12q49 0 112 -26.5t122 -52.5t98 -26q10 0 17.5 1t14 4.5t11 6t9 10t7 11t6 15t5 16t5.5 20t6 21.5l17 -3q-8 -48 -15.5 -75.5
t-22 -55t-37.5 -39.5t-57 -12q-49 0 -112 27t-122 53.5t-98 26.5zM1012 896q76 -76 116.5 -174.5t40.5 -205.5q0 -192 -122.5 -340.5t-310.5 -186.5q-124 -25 -244.5 8t-214.5 115t-142 199q-73 178 -17.5 361.5t215.5 290.5t351.5 88t327.5 -155zM992 156q57 57 71 134.5
t4 188.5q-20 201 -167 345q-75 78 -173.5 121.5t-206.5 45.5q-77 0 -132.5 -27t-116.5 -88q-84 -84 -97 -197t38 -227.5t153 -216.5q101 -101 213 -148.5t221 -31t193 100.5z" />
    <glyph glyph-name="odieresis" unicode="&#xf6;" horiz-adv-x="1263" 
d="M1012 896q76 -76 116.5 -174t40.5 -205q0 -192 -122.5 -340.5t-310.5 -186.5q-124 -25 -244.5 7.5t-214.5 114.5t-142 199q-73 178 -17.5 361.5t215.5 290.5t351.5 88t327.5 -155zM992 156q57 57 71 135t4 189q-20 200 -167 344q-75 78 -173.5 122t-206.5 46
q-77 0 -132.5 -27t-116.5 -88q-84 -84 -97 -197t38 -228t153 -217q101 -101 213 -148.5t221 -31t193 100.5zM830 1221q-19 -19 -46 -19t-46 19q-31 31 -15 71q7 18 24 29t37 11q43 0 60 -40t-14 -71zM497 1221q-19 -19 -46 -19.5t-46 18.5t-19.5 46t18.5 46t46 19.5
t46 -18.5t19.5 -46t-18.5 -46z" />
    <glyph glyph-name="oslash" unicode="&#xf8;" horiz-adv-x="1267" 
d="M1012 894q145 -145 156.5 -350.5t-116.5 -365.5t-331.5 -193.5t-376.5 76.5l-105 -148l-19 13l105 148q-119 83 -180.5 214t-48.5 276t97.5 263t216.5 177t276.5 44t261.5 -100l86 120l19 -14l-86 -120q27 -22 45 -40zM272 874q-84 -84 -97 -197t38 -228t153 -217
q13 -13 43 -39l466 652q-149 139 -354 144q-77 0 -132.5 -27t-116.5 -88zM993 153q57 57 71 135t4 189q-20 200 -167 344q-1 2 -4 4.5t-5 3.5l-464 -651q96 -78 196 -110t196.5 -11.5t172.5 96.5z" />
    <glyph glyph-name="ugrave" unicode="&#xf9;" horiz-adv-x="1183" 
d="M679 1150l-13 -9l-297 319h161zM1027 1019h8v-844v-175h-128l-47 155v10q-84 -85 -189 -135.5t-211 -50.5q-162 0 -242.5 89.5t-80.5 274.5v662l166 14h8v-660q0 -8 -0.5 -29.5t-1 -37.5t1 -41t4.5 -44.5t10.5 -43t19 -41.5t29.5 -35.5t41 -29t56 -18.5t72 -7
q163 0 317 180v793z" />
    <glyph glyph-name="uacute" unicode="&#xfa;" horiz-adv-x="1183" 
d="M1027 1019h8v-844v-175h-128l-47 155v10q-84 -85 -189 -135.5t-211 -50.5q-162 0 -242.5 89.5t-80.5 274.5v662l166 14h8v-660q0 -8 -0.5 -29.5t-1 -37.5t1 -41t4.5 -44.5t10.5 -43t19 -41.5t29.5 -35.5t41 -29t56 -18.5t72 -7q163 0 317 180v793zM841 1460l-297 -319
l-13 9l148 310h162z" />
    <glyph glyph-name="ucircumflex" unicode="&#xfb;" horiz-adv-x="1183" 
d="M580 1338l-263 -197l-11 9l269 310h11l267 -310l-12 -9zM1027 1019h8v-844l-1 -175h-127l-47 155v10q-84 -85 -189 -135.5t-211 -50.5q-323 0 -323 364v662l166 14h8v-660q0 -8 -0.5 -29.5t-1 -37.5t1 -41t4.5 -44.5t10.5 -43t19 -41.5t29.5 -35.5t41 -29t56 -18.5t72 -7
q163 0 317 180v793z" />
    <glyph glyph-name="udieresis" unicode="&#xfc;" horiz-adv-x="1183" 
d="M443 1221q-19 -19 -46 -19t-46 19q-31 31 -14 71t60 40t60 -40t-14 -71zM777 1221q-19 -19 -46 -19.5t-46 18.5t-19.5 46t18.5 46t46 19.5t46 -18.5t19.5 -46t-18.5 -46zM1027 1019h8v-844l-1 -175h-127l-47 155v10q-84 -85 -189 -135.5t-211 -50.5q-323 0 -323 364v662
l166 14h8v-660q0 -8 -0.5 -29.5t-1 -37.5t1 -41t4.5 -44.5t10.5 -43t19 -41.5t29.5 -35.5t41 -29t56 -18.5t72 -7q163 0 317 180v793z" />
    <glyph glyph-name="yacute" unicode="&#xfd;" horiz-adv-x="960" 
d="M758 1460l-296 -319l-13 9l148 310h161zM869 1019l39 -1l-371 -996l-9 -25l-6 -16l-2 -5l-1 -2l-64 -147q-32 -79 -92.5 -139t-133.5 -91.5t-143.5 -46.5t-138.5 -15l12 223q38 -8 74 -8q20 0 68 -8t90 -12t88.5 -1t83.5 27.5t55 70.5l71 176l-443 1016h168l359 -807
l-37 -102z" />
    <glyph glyph-name="ydieresis" unicode="&#xff;" horiz-adv-x="956" 
d="M697 1221q-19 -19 -46 -19q-28 0 -46 18q-19 19 -19.5 46t18.5 46t46 19.5t46 -18.5t19.5 -46t-18.5 -46zM363 1221q-19 -19 -46 -19t-46 19q-31 31 -14 71t60 40t60 -40t-14 -71zM867 1028l39 -1l-371 -996l-9 -26l-6 -15l-2 -5l-2 -2l-63 -147q-32 -79 -92.5 -139
t-133.5 -91.5t-143.5 -46.5t-138.5 -15l12 222q34 -7 74 -7q20 0 68 -8t90 -12t88.5 -1t83.5 27.5t55 70.5l70 176l-442 1016h168l359 -808z" />
    <glyph glyph-name="Aogonek" unicode="&#x104;" horiz-adv-x="1333" 
d="M1444 -246l8 -14q-52 -32 -76.5 -45.5t-66.5 -28t-79 -14.5q-48 0 -95 12q-41 11 -74 35q-65 47 -63 125q0 70 45 123q24 29 61 52h-41l-182 474h-613q-28 -74 -34.5 -92t-15 -39t-15.5 -37t-40 -97.5t-84 -208.5h-42q76 182 245 621l321 828h129l562 -1449h-103
q-21 -13 -36 -33q-21 -26 -31 -53q-11 -28 -11 -57q-3 -30 11.5 -56.5t40.5 -40.5q136 -54 279 -5zM273 490h601l-301 776l-254 -658z" />
    <glyph glyph-name="aogonek" unicode="&#x105;" horiz-adv-x="1060" 
d="M1106 -264l8 -15q-50 -30 -76 -44.5t-67.5 -28.5t-78.5 -14q-50 0 -96 12q-39 11 -73 35q-65 47 -63 125q0 70 45 123q41 47 98 71h-54l-5 136q-164 -150 -384 -155q-120 0 -195 61.5t-75 169.5q0 139 123.5 231.5t326.5 116.5q97 11 204 18v92q0 339 -266 339
q-49 0 -95 -35.5t-102 -100.5t-87 -91l-56 115q76 69 211 108t252 39q160 0 240.5 -89t80.5 -275v-680h-21q-23 -3 -41 -14q-26 -15 -44 -38q-19 -24 -30 -53q-12 -31 -12 -58q-3 -30 11.5 -56t41.5 -40q136 -54 279 -5zM744 173v356q-87 3 -162 -1.5t-146 -20.5
t-119.5 -43.5t-76 -73t-23.5 -106.5q8 -111 70 -166.5t161 -55.5q91 0 160 23t136 88z" />
    <glyph glyph-name="Cacute" unicode="&#x106;" horiz-adv-x="1427" 
d="M987 1805l-330 -319l-14 10l164 309h180zM1353 240l11 -9q-11 -13 -35 -37q-139 -139 -325.5 -188.5t-373.5 0t-326 188.5t-188.5 326t0.5 373.5t189 325.5t326 188.5t373.5 0t325.5 -188.5q8 -8 24 -26l-133 -126l-24 24q-140 140 -297 208.5t-312.5 48t-273.5 -138.5
q-117 -117 -135.5 -278t52.5 -323t211 -302t296 -204.5t310 -40.5t272 142q20 20 33 37z" />
    <glyph glyph-name="cacute" unicode="&#x107;" horiz-adv-x="1116" 
d="M834 1488l-309 -340l-14 11l168 329h155zM1017 184l25 -23l-7 -9q-8 -9 -26 -27q-75 -76 -173.5 -116.5t-205.5 -40.5h-13l-36 2q-140 13 -254 91.5t-176 202.5t-56 265q10 215 165 363t370 148q107 0 205.5 -40.5t173.5 -116.5q3 -3 9 -9.5t9 -9.5l8 -9l-130 -153
q-68 124 -107 171q-84 102 -195 112q-200 18 -306 -88q-62 -63 -91 -146t-20 -171q23 -198 164.5 -339.5t339.5 -164.5q107 -9 173 4t122 69q21 20 24 25z" />
    <glyph glyph-name="Eogonek" unicode="&#x118;" horiz-adv-x="1073" 
d="M1191 -263l8 -14q-50 -30 -76 -44.5t-67.5 -28.5t-78.5 -14q-49 0 -96 12q-42 11 -73 34q-65 47 -63 126q0 70 45 123q37 44 93 69h-719v1425h828l-39 -142h-4q-83 11 -239.5 59t-250.5 48h-133v-630h385v-36h-385v-689h133q93 0 262 57t255 69h4l41 -161h-46
q-13 -3 -30 -12q-26 -15 -44 -38q-19 -24 -30 -53q-12 -31 -12 -58q-3 -30 11.5 -56t41.5 -40q138 -54 279 -6z" />
    <glyph glyph-name="eogonek" unicode="&#x119;" horiz-adv-x="1107" 
d="M634 -67q-22 -27 -31 -52q-11 -28 -11 -58q-3 -30 11.5 -56.5t40.5 -40.5q136 -54 279 -5l8 -14q-52 -32 -76.5 -45.5t-66.5 -28t-79 -14.5q-49 0 -95 12q-39 11 -73 35q-65 47 -63 125q0 70 45 123q25 31 57 50q-154 12 -277 105t-176 238t-20 295.5t142 259.5
q166 166 345 163h8q2 0 4 -0.5t3 -0.5q3 0 7 -0.5t7 -0.5h2q153 -14 244.5 -121t101.5 -288q0 -5 0.5 -15.5t0.5 -16.5h-816q-4 -96 40 -182.5t135 -177.5q103 -99 219.5 -147.5t229.5 -34.5t195 96q14 14 31 36h36q-68 -90 -165.5 -144t-208.5 -64q-19 -13 -34 -31z
M268 843q-95 -96 -110 -229h639q0 2 -0.5 6.5t-0.5 6.5v2q0 12 -2 36q0 1 -0.5 4t-0.5 4q-8 62 -25.5 111.5t-39.5 78t-47 49t-48.5 28.5t-42.5 12t-30 4l-12 -1q-165 3 -280 -112z" />
    <glyph glyph-name="dotlessi" unicode="&#x131;" horiz-adv-x="456" 
d="M303 1017h8v-1017h-166v1002z" />
    <glyph glyph-name="Lslash" unicode="&#x141;" horiz-adv-x="1067" 
d="M1040 0h-812v540l-145 -145l-20 20l165 165v846h159v-688l299 299l19 -20l-318 -318v-689h47q49 0 144.5 30.5t214 68.5t202.5 51h4z" />
    <glyph glyph-name="lslash" unicode="&#x142;" horiz-adv-x="516" 
d="M434 831l-92 -53v-780h-166v685l-80 -46l-14 24l94 55v926l158 23h8v-854l78 45z" />
    <glyph glyph-name="Nacute" unicode="&#x143;" horiz-adv-x="1267" 
d="M854 1816l-330 -319l-14 10l164 309h180zM1077 1432h26v-1460h-11l-896 1317v-1290h-21v1324l-62 92v6h211l753 -1108v1119z" />
    <glyph glyph-name="nacute" unicode="&#x144;" horiz-adv-x="1177" 
d="M728 1426l-309 -339l-15 10l168 329h156zM715 1052q323 0 323 -364v-685h-167v669q0 10 1.5 38.5t2.5 51t-2 55t-10 57t-22.5 51.5t-39 44.5t-61.5 29t-87 11.5q-91 0 -170 -41.5t-173 -131.5v-834h-165v1002l157 39h8v-170q98 90 195 134t210 44z" />
    <glyph glyph-name="OE" unicode="&#x152;" horiz-adv-x="1861" 
d="M1765 187l40 -186h-857q-215 -40 -415.5 45.5t-320.5 267.5t-120 400.5t121 399.5q121 182 321.5 267t414.5 45h827l-39 -167h-4q-64 9 -134.5 32t-120 44.5t-113.5 38.5t-122 17h-133v-631h385v-35h-385v-689h133q73 0 159.5 31.5t182 70t175.5 49.5h5zM948 61v1199
q-113 66 -222.5 86.5t-216.5 -11t-195 -119.5t-117 -204.5t-1.5 -237t97.5 -241t175 -225.5q233 -233 480 -247z" />
    <glyph glyph-name="oe" unicode="&#x153;" horiz-adv-x="1263" 
d="M1012 894q76 -76 116.5 -174.5t40.5 -205.5q0 -192 -122.5 -340.5t-310.5 -186.5q-124 -25 -244.5 7.5t-214.5 114.5t-142 199q-47 123 -39.5 243.5t70 230t167.5 179.5q160 107 351.5 88t327.5 -155zM992 153q57 57 71 135.5t4 188.5q-20 200 -167 344
q-75 78 -173.5 122t-206.5 46q-77 0 -132.5 -27t-116.5 -88q-84 -84 -97 -197t38 -228t153 -217q101 -101 213 -148.5t221 -31t193 100.5z" />
    <glyph glyph-name="Sacute" unicode="&#x15a;" horiz-adv-x="1069" 
d="M660 1820l-329 -319l-14 10l163 309h180zM619 774q71 -35 113 -57.5t95 -61t81.5 -76t48.5 -92.5t20 -120q0 -93 -37.5 -168.5t-101 -122.5t-143.5 -72.5t-168 -25.5q-231 6 -437 109l89 192q26 -25 75 -84t85.5 -101t90 -76.5t104.5 -34.5q148 0 250.5 95.5t102.5 231.5
q0 42 -10 76.5t-30.5 61t-42.5 46.5t-57 38.5t-61 30.5t-67.5 30t-65.5 29l-98 47q-91 44 -163.5 102t-124 147t-51.5 189q0 150 115.5 246.5t299.5 96.5q209 -3 389 -110l-109 -208q-27 25 -62.5 83t-62.5 105t-72.5 85t-97.5 38q-138 0 -222 -86t-84 -201q0 -52 17.5 -96
t42.5 -75t71 -63t82.5 -52t97.5 -49z" />
    <glyph glyph-name="sacute" unicode="&#x15b;" horiz-adv-x="905" 
d="M615 1507l-309 -340l-14 10l168 330h155zM525 570q38 -17 58 -26.5t55.5 -29t55.5 -35t46 -39.5t39.5 -49t23.5 -57.5t10 -69.5q0 -129 -101.5 -205.5t-264.5 -76.5q-193 0 -353 106l67 161q23 -23 60 -73.5t64 -85.5t72.5 -64t95.5 -29q124 0 197.5 52.5t77.5 149.5
q1 45 -42.5 88t-82.5 63t-124 58q-11 5 -17 8l-78 35q-113 51 -189.5 145.5t-76.5 210.5q0 115 91.5 181.5t233.5 66.5q175 0 330 -86l-92 -206q-21 17 -49.5 67t-52.5 95t-63 81.5t-83 36.5q-107 0 -170 -62.5t-63 -144.5q0 -35 15.5 -66t34 -51t55 -42.5t58 -33
t64.5 -29.5q13 -6 20 -9z" />
    <glyph glyph-name="Scaron" unicode="&#x160;" horiz-adv-x="1069" 
d="M539 1510h-11l-301 292l11 9l296 -182l295 182l12 -9zM619 775q71 -35 113 -57.5t95 -61t81.5 -76t48.5 -92.5t20 -120q0 -93 -37.5 -168.5t-101 -123t-143.5 -73t-168 -25.5q-229 6 -437 110l89 191q26 -25 75 -84t85.5 -101t90 -76.5t104.5 -34.5q148 0 250.5 96
t102.5 232q0 48 -15.5 88t-36 65t-60 50.5t-67.5 38.5t-79 35t-76 34l-98 47q-67 32 -124.5 73.5t-107.5 96t-78.5 124t-28.5 145.5q0 149 115.5 245.5t299.5 96.5q210 -3 389 -109l-109 -208q-27 25 -62.5 83t-62.5 105t-72.5 85t-97.5 38q-138 0 -222 -86.5t-84 -201.5
q0 -43 10.5 -80.5t34 -68t47.5 -54.5t65.5 -49t72 -41.5t81.5 -40.5z" />
    <glyph glyph-name="scaron" unicode="&#x161;" horiz-adv-x="905" 
d="M439 1141h-11l-269 310l11 9l263 -195l261 195l12 -9zM525 564q39 -17 58.5 -26.5t55.5 -29t55.5 -34.5t45.5 -39.5t39.5 -49t23.5 -57t10 -69.5q0 -129 -101.5 -205.5t-264.5 -76.5q-195 0 -353 105l67 162q23 -23 60 -73.5t64 -85.5t72.5 -64t95.5 -29q124 0 197.5 52
t77.5 149q1 45 -42.5 88t-82.5 63t-124 58q-11 5 -17 8l-78 36q-113 51 -189.5 145t-76.5 210q0 115 91.5 182t233.5 67q175 0 330 -86l-92 -206q-21 18 -50 67t-52.5 94.5t-62.5 81.5t-83 36q-107 0 -170 -62.5t-63 -144.5q0 -35 15.5 -66t34 -51t55 -42.5t58 -33
t64.5 -29.5q13 -6 20 -9z" />
    <glyph glyph-name="Ydieresis" unicode="&#x178;" horiz-adv-x="1169" 
d="M855 1590q-19 -19 -46 -19t-46 19q-31 31 -15 71q8 18 25 29.5t36 11.5t35.5 -11.5t24.5 -29.5q17 -40 -14 -71zM1119 1425h27q-192 -323 -341 -582l-119 -206v-638l-164 3v635l-502 788h219l438 -767l106 182zM508 1591q-19 -19 -46.5 -19.5t-46.5 18.5t-19.5 46
t18.5 46t46.5 19.5t46.5 -18.5t19.5 -46t-18.5 -46z" />
    <glyph glyph-name="Zacute" unicode="&#x179;" horiz-adv-x="1177" 
d="M801 1796l-329 -319l-15 10l164 309h180zM1121 1425v-8l-855 -1407h186q96 0 190 23t156.5 52t136.5 58t128 38h4l30 -182h-1044v8l856 1408h-50q-124 0 -270.5 -40t-278 -88.5t-181.5 -57.5h-4l-9 196h1005z" />
    <glyph glyph-name="zacute" unicode="&#x17a;" horiz-adv-x="970" 
d="M728 1452l-309 -340l-15 10l168 330h156zM901 159h6l-24 -159h-826v8l623 989h-85q-67 0 -136 -17.5t-117 -39t-106 -44t-100 -30.5h-6l30 160h719v-8l-623 -989h176q67 0 137.5 17.5t120.5 39t109.5 44t101.5 29.5z" />
    <glyph glyph-name="Zdot" unicode="&#x17b;" horiz-adv-x="1177" 
d="M1121 1425v-8l-855 -1407h186q96 0 190 23t156.5 52t136.5 58t128 38h4l30 -182h-1044v8l856 1408h-50q-124 0 -270.5 -40t-278 -88.5t-181.5 -57.5h-4l-9 196h1005zM596 1554q-41 0 -70 29t-29 70t29 70t70 29t70 -29t29 -70t-29 -70t-70 -29z" />
    <glyph glyph-name="zdot" unicode="&#x17c;" horiz-adv-x="970" 
d="M901 159h6l-24 -159h-826v8l623 989h-85q-67 0 -136 -17.5t-117 -39t-106 -44t-100 -30.5h-6l30 160h719v-8l-623 -989h176q67 0 137.5 17.5t120.5 39t109.5 44t101.5 29.5zM516 1184q-25 0 -42 17t-17 42t17 42.5t42 17.5t42 -17.5t17 -42.5t-17 -42t-42 -17z" />
    <glyph glyph-name="zcaron" unicode="&#x17e;" horiz-adv-x="970" 
d="M489 1135h-12l-268 310l11 9l263 -195l261 195l11 -9zM901 159h6l-24 -159h-826v8l623 989h-85q-67 0 -136 -17.5t-117 -39t-106 -44t-100 -30.5h-6l30 160h719v-8l-623 -989h176q67 0 137.5 17.5t120.5 39t109.5 44t101.5 29.5z" />
    <glyph glyph-name="quoteright" unicode="&#x2019;" horiz-adv-x="405" 
d="M217 1425q73 -62 73 -156q0 -71 -45 -140.5t-127 -113.5l-9 14q102 69 102 161q-5 86 -73 143q-19 17 -19 43q0 27 17 44t40 18.5t41 -13.5z" />
    <glyph glyph-name="quotedblleft" unicode="&#x201c;" horiz-adv-x="712" 
d="M296 1442q-103 -70 -103 -162q5 -86 73 -143q19 -17 19 -43q0 -27 -17 -44t-39.5 -18t-40.5 14q-73 62 -73 156q0 71 44.5 140.5t126.5 113.5zM508 1281q5 -88 72 -144q20 -18 20 -43q0 -27 -17 -44t-40 -18t-41 14q-73 62 -73 156q0 71 45 140.5t127 113.5l9 -14
q-102 -69 -102 -161z" />
    <glyph glyph-name="quotedblright" unicode="&#x201d;" horiz-adv-x="720" 
d="M217 1425q73 -62 73 -156q0 -71 -45 -140.5t-127 -113.5l-9 14q102 69 102 161q-5 86 -73 143q-19 17 -19 43q0 27 17 44t40 18.5t41 -13.5zM531 1425q73 -62 73 -156q0 -71 -44.5 -140.5t-126.5 -113.5l-10 14q103 70 103 161q-5 86 -73 143q-19 17 -19 43q0 27 17 44
t39.5 18.5t40.5 -13.5z" />
    <glyph glyph-name="Euro" unicode="&#x20ac;" horiz-adv-x="1478" 
d="M1329 193l20 -22q-84 -94 -198.5 -145t-239.5 -50q-119 0 -231.5 42.5t-204 119t-154.5 193t-79 255.5q-4 30 -6 62h-111v41h111v27h-111v41h112l7 93q22 172 121 311.5t251 217.5t326 76q110 2 213 -34.5t186 -108.5l-106 -193q-29 31 -69.5 91.5t-69.5 103t-74 76.5
t-94 34q-208 0 -352.5 -158t-172.5 -416q-3 -41 -4 -93h319v-41h-319v-27h319v-41h-317q1 -29 8 -62q38 -252 188.5 -411.5t352.5 -159.5q97 0 195.5 47.5t183.5 130.5z" />
    </font>
</defs>
</svg>
